<svg width="2685" height="2685" viewBox="0 0 2685 2685" fill="none" xmlns="http://www.w3.org/2000/svg">
<path fill-rule="evenodd" clip-rule="evenodd" d="M1173.24 22.4141C1227.19 8.4143 1283.78 0.96464 1342.11 0.96464C1400.44 0.96464 1457.02 8.4143 1510.97 22.4141C1452.62 22.759 1396.03 30.5498 1342.11 44.8844C1288.19 30.5497 1231.6 22.7589 1173.24 22.4141ZM1342.11 0.0479736C1401.72 0.0479736 1459.52 7.81863 1514.54 22.4023L1515.02 22.4021C1637.07 22.4021 1751.51 54.9724 1850.12 111.895C1965.29 142.455 2068.31 202.866 2150.4 284.343C2253.37 343.585 2339.14 429.358 2398.39 532.331C2479.96 613.998 2540.6 716.576 2571.58 831.331C2628.96 930.234 2661.82 1045.14 2661.82 1167.71C2661.82 1168.37 2661.82 1169.02 2661.81 1169.67C2676.4 1224.7 2684.17 1282.5 2684.17 1342.11C2684.17 1401.72 2676.4 1459.51 2661.82 1514.53L2661.82 1515.03C2661.82 1637.09 2629.24 1751.53 2572.31 1850.15C2541.31 1966.95 2479.62 2071.25 2396.38 2153.88C2337.21 2255.33 2252.2 2339.85 2150.37 2398.42C2068.28 2479.9 1965.26 2540.31 1850.07 2570.86C1752.85 2626.97 1640.24 2659.41 1520.12 2660.31C1463.43 2675.86 1403.74 2684.17 1342.11 2684.17C1280.48 2684.17 1220.78 2675.86 1164.09 2660.31C1043.98 2659.41 931.369 2626.97 834.141 2570.86C718.959 2540.31 615.932 2479.9 533.845 2398.42C432.017 2339.85 347.007 2255.33 287.836 2153.89C204.599 2071.25 142.9 1966.95 111.903 1850.14C54.974 1751.53 22.3998 1637.08 22.3998 1515.03L22.3999 1514.53C7.81779 1459.51 0.0479507 1401.72 0.0479507 1342.11C0.0479507 1282.5 7.81872 1224.7 22.4026 1169.67C22.4007 1169.02 22.3998 1168.37 22.3998 1167.71C22.3998 1045.14 55.2535 930.236 112.636 831.334C143.612 716.577 204.255 613.997 285.83 532.329C345.073 429.357 430.847 343.585 533.82 284.343C615.901 202.866 718.922 142.455 834.097 111.895C932.709 54.9724 1047.15 22.4021 1169.19 22.4021L1169.67 22.4023C1224.7 7.81863 1282.49 0.0479736 1342.11 0.0479736ZM837.536 2571.75C933.028 2626.22 1043.21 2657.89 1160.66 2659.36C1105.42 2643.88 1053.05 2621.52 1004.55 2593.25C946.876 2593.06 890.916 2585.61 837.536 2571.75ZM1167.65 2660.33C1223.28 2675.28 1281.76 2683.25 1342.11 2683.25C1402.45 2683.25 1460.94 2675.28 1516.56 2660.33L1515.86 2660.33L1515.02 2660.33C1455.24 2660.33 1397.28 2652.51 1342.11 2637.84C1286.94 2652.51 1228.98 2660.33 1169.19 2660.33C1168.68 2660.33 1168.16 2660.33 1167.65 2660.33ZM1340.32 2637.37C1285.69 2651.75 1228.34 2659.41 1169.19 2659.41C1167.53 2659.41 1165.87 2659.4 1164.22 2659.39C1108.35 2644.05 1055.4 2621.67 1006.38 2593.25H1006.71C1066.54 2593.25 1124.55 2585.42 1179.75 2570.73C1229.59 2599.52 1283.46 2622.08 1340.32 2637.37ZM1343.89 2637.37C1398.52 2651.75 1455.88 2659.41 1515.02 2659.41C1516.68 2659.41 1518.34 2659.4 1520 2659.39C1575.86 2644.05 1628.82 2621.67 1677.84 2593.25H1677.51C1617.67 2593.25 1559.67 2585.42 1504.46 2570.73C1454.63 2599.52 1400.75 2622.08 1343.89 2637.37ZM1503.21 2570.4C1453.21 2599.18 1399.16 2621.71 1342.11 2636.9C1285.06 2621.71 1231 2599.18 1181.01 2570.4C1238.06 2555.1 1292.12 2532.47 1342.11 2503.58C1392.09 2532.47 1446.15 2555.1 1503.21 2570.4ZM1505.58 2570.08C1560.45 2584.6 1618.08 2592.33 1677.51 2592.33C1677.88 2592.33 1678.26 2592.33 1678.64 2592.33L1679.42 2592.33C1729.26 2563.25 1775.02 2527.92 1815.6 2487.42C1755.84 2487.37 1697.9 2479.51 1642.75 2464.81C1601.88 2505.5 1555.79 2540.95 1505.58 2570.08ZM1641.73 2464.54C1600.79 2505.22 1554.62 2540.66 1504.33 2569.75C1447.2 2554.51 1393.07 2531.92 1343.02 2503.05C1393.33 2473.87 1439.5 2438.34 1480.43 2397.57C1530.47 2426.52 1584.59 2449.2 1641.73 2464.54ZM1643.5 2464.06C1698.58 2478.7 1756.45 2486.5 1816.14 2486.5H1816.52C1857.46 2445.5 1893.11 2399.21 1922.37 2348.77C1862.71 2348.67 1804.88 2340.79 1749.84 2326.1C1720.43 2376.65 1684.62 2423.01 1643.5 2464.06ZM1748.92 2325.85C1719.49 2376.4 1683.63 2422.75 1642.48 2463.79C1585.32 2448.5 1531.16 2425.84 1481.1 2396.9C1522.25 2355.8 1558.09 2309.38 1587.5 2258.77C1637.57 2287.78 1691.74 2310.49 1748.92 2325.85ZM1750.31 2325.27C1805.38 2339.96 1863.23 2347.8 1922.9 2347.85C1951.87 2297.73 1974.53 2243.52 1989.81 2186.29C1930.23 2186.23 1872.48 2178.4 1817.49 2163.77C1802.11 2220.99 1779.36 2275.18 1750.31 2325.27ZM1816.6 2163.53C1801.22 2220.75 1778.46 2274.94 1749.4 2325.03C1692.2 2309.69 1638.03 2286.98 1587.96 2257.98C1616.96 2207.91 1639.69 2153.74 1655.04 2096.56C1705.16 2125.54 1759.38 2148.22 1816.6 2163.53ZM1817.73 2162.88C1872.71 2177.51 1930.47 2185.33 1990.06 2185.37C2004.63 2130.49 2012.41 2072.83 2012.45 2013.37C1952.99 2013.33 1895.34 2005.56 1840.45 1991.01C1840.28 2050.43 1832.39 2108.04 1817.73 2162.88ZM1839.53 1990.76C1839.38 2050.19 1831.5 2107.81 1816.84 2162.65C1759.61 2147.33 1705.4 2124.64 1655.29 2095.64C1669.92 2040.86 1677.79 1983.31 1677.96 1923.96C1728.09 1952.88 1782.31 1975.51 1839.53 1990.76ZM1840.45 1990.06C1895.34 2004.63 1952.99 2012.41 2012.45 2012.45C2012.41 1952.45 2004.49 1894.3 1989.66 1838.97C1930.35 1838.89 1872.85 1831.12 1818.09 1816.61C1832.68 1871.64 1840.45 1929.45 1840.45 1989.07C1840.45 1989.4 1840.45 1989.73 1840.45 1990.06ZM1817.07 1816.34C1831.72 1871.45 1839.53 1929.34 1839.53 1989.07C1839.53 1989.32 1839.53 1989.57 1839.53 1989.81C1782.3 1974.53 1728.08 1951.87 1677.97 1922.9L1677.97 1921.99C1677.97 1862.38 1670.2 1804.59 1655.62 1749.57C1705.71 1778.47 1759.89 1801.08 1817.07 1816.34ZM1817.82 1815.59C1872.58 1830.15 1930.09 1837.95 1989.42 1838.05C1974.14 1781.37 1951.62 1727.65 1922.9 1677.97C1863.86 1677.92 1806.6 1670.25 1752.06 1655.88C1780.47 1705.49 1802.74 1759.07 1817.82 1815.59ZM1750.81 1655.55C1779.32 1705.16 1801.66 1758.77 1816.8 1815.31C1759.58 1800 1705.38 1777.31 1655.28 1748.31C1640.26 1692.07 1618.12 1638.74 1589.88 1589.34C1639.84 1618.01 1693.84 1640.43 1750.81 1655.55ZM1751.41 1654.77C1805.98 1669.22 1863.28 1676.96 1922.37 1677.05C1892.76 1626 1856.61 1579.22 1815.06 1537.85C1756.42 1537.76 1699.55 1530.15 1645.36 1515.93C1686.43 1557.27 1722.16 1603.92 1751.41 1654.77ZM1643.6 1515.47C1684.87 1556.81 1720.77 1603.51 1750.16 1654.43C1693.08 1639.2 1638.99 1616.62 1588.98 1587.77C1560.01 1537.41 1524.7 1491.17 1484.14 1450.13C1533.69 1478.38 1587.19 1500.51 1643.6 1515.47ZM1644.07 1514.65C1698.37 1529.02 1755.36 1536.76 1814.13 1536.93C1773.22 1496.36 1727.1 1461.02 1676.87 1432.01C1619.59 1431.96 1563.98 1424.73 1510.91 1411.18C1559.59 1440.03 1604.32 1474.85 1644.07 1514.65ZM1507.7 1410.35C1556.92 1439.2 1602.14 1474.16 1642.31 1514.18C1585.43 1498.95 1531.54 1476.43 1481.7 1447.68C1448.18 1414.11 1411.13 1384.08 1371.15 1358.19C1414.18 1380.29 1459.9 1397.89 1507.7 1410.35ZM1508.05 1409.49C1561.49 1423.41 1617.52 1430.9 1675.28 1431.09C1625.34 1402.44 1571.37 1380.02 1514.42 1364.92C1467.68 1364.88 1422.06 1360.06 1378.02 1350.93C1423.72 1365.87 1467.26 1385.59 1508.05 1409.49ZM1368.81 1348.95C1416.64 1363.85 1462.17 1383.96 1504.73 1408.62C1454.57 1395.28 1406.72 1376.26 1361.92 1352.31C1357.44 1349.51 1352.93 1346.77 1348.39 1344.07C1355.15 1345.8 1361.96 1347.43 1368.81 1348.95ZM1369.05 1348.06C1414.75 1358.21 1462.2 1363.7 1510.88 1363.99C1459.59 1350.69 1405.92 1343.31 1350.64 1342.62C1356.81 1344.35 1362.95 1346.16 1369.05 1348.06ZM1347.08 1342.58C1349.51 1343.25 1351.93 1343.93 1354.34 1344.62C1351.64 1343.96 1348.94 1343.28 1346.25 1342.58C1346.53 1342.58 1346.8 1342.58 1347.08 1342.58ZM1347.07 1341.63C1346.75 1341.54 1346.42 1341.45 1346.1 1341.36C1353.8 1339.26 1361.46 1337.03 1369.05 1334.66C1416.04 1324.23 1464.89 1318.73 1515.02 1318.73L1515.54 1318.73L1516.13 1318.73L1516.55 1318.73C1462.46 1333.27 1405.66 1341.21 1347.07 1341.63ZM1335.79 1338.64C1329.03 1336.92 1322.24 1335.3 1315.4 1333.78C1267.59 1318.88 1222.08 1298.78 1179.53 1274.14C1229.67 1287.48 1277.51 1306.49 1322.3 1330.43C1326.76 1333.22 1331.26 1335.96 1335.79 1338.64ZM1329.87 1338.11C1332.8 1338.83 1335.73 1339.57 1338.65 1340.33C1338.89 1340.47 1339.13 1340.61 1339.38 1340.76C1336.2 1339.9 1333.03 1339.01 1329.87 1338.11ZM1306.19 1331.8C1260.51 1316.86 1216.99 1297.15 1176.21 1273.26C1122.07 1259.16 1065.26 1251.65 1006.71 1251.65L1006.38 1251.65C1055.44 1280.09 1108.43 1302.49 1164.35 1317.83C1165.96 1317.81 1167.57 1317.81 1169.19 1317.81C1216.14 1317.81 1261.96 1322.63 1306.19 1331.8ZM1167.66 1318.73C1168.17 1318.73 1168.68 1318.73 1169.19 1318.73C1219.32 1318.73 1268.17 1324.23 1315.16 1334.66C1322.76 1337.03 1330.41 1339.26 1338.12 1341.36C1337.79 1341.45 1337.47 1341.54 1337.14 1341.63C1278.56 1341.21 1221.76 1333.27 1167.66 1318.73ZM1161.02 1317.86C1105.65 1302.38 1053.16 1279.98 1004.56 1251.65C945.517 1251.84 888.271 1259.65 833.756 1274.17C883.493 1302.97 937.273 1325.57 994.038 1340.89C1047.36 1326.51 1103.32 1318.55 1161.02 1317.86ZM995.806 1341.36C1049.58 1327.01 1106.02 1319.17 1164.23 1318.74C1213.17 1332.16 1264.34 1340.17 1317.07 1342.11C1266.29 1343.97 1216.96 1351.47 1169.67 1364L1169.19 1364C1109.23 1364 1051.11 1356.13 995.806 1341.36ZM992.286 1341.36C935.699 1325.95 882.089 1303.31 832.505 1274.51C775.462 1289.81 721.422 1312.46 671.46 1341.37C721.417 1370.28 775.451 1392.92 832.489 1408.23C882.077 1379.43 935.693 1356.79 992.286 1341.36ZM833.739 1408.57C883.481 1379.76 937.267 1357.17 994.038 1341.84C1048.98 1356.65 1106.71 1364.66 1166.27 1364.91C1109.93 1380.17 1056.52 1402.57 1007.09 1431.1L1006.71 1431.1C946.899 1431.1 888.919 1423.26 833.739 1408.57ZM831.373 1408.88C774.408 1393.51 720.442 1370.83 670.546 1341.9C620.267 1371.1 574.132 1406.65 533.239 1447.45C583.318 1476.38 637.486 1499.02 694.664 1514.29C735.39 1473.59 781.321 1438.09 831.373 1408.88ZM695.688 1514.56C736.478 1473.86 782.485 1438.38 832.62 1409.22C887.772 1423.99 945.726 1431.91 1005.51 1432.01C955.477 1461.07 909.54 1496.4 868.78 1536.94L868.073 1536.94C808.475 1536.94 750.694 1529.16 695.688 1514.56ZM693.916 1515.04C636.766 1499.73 582.625 1477.06 532.568 1448.12C491.166 1489.55 455.159 1536.37 425.691 1587.43C475.79 1616.4 529.987 1639.07 587.199 1654.37C616.625 1603.31 652.578 1556.49 693.916 1515.04ZM588.116 1654.61C617.569 1603.55 653.557 1556.74 694.939 1515.31C750.107 1530 808.07 1537.83 867.859 1537.85C826.402 1579.24 790.329 1626.02 760.783 1677.05H760.754C701.065 1677.05 643.198 1669.25 588.116 1654.61ZM586.726 1655.19C529.523 1639.87 475.332 1617.19 425.233 1588.23C396.584 1638.03 374.15 1691.86 358.989 1748.66C409.12 1777.61 463.347 1800.24 520.588 1815.5C535.735 1758.75 558.132 1704.96 586.726 1655.19ZM521.474 1815.73C536.622 1758.98 559.03 1705.2 587.643 1655.43C642.716 1670.09 700.574 1677.92 760.254 1677.97C731.584 1727.66 709.099 1781.38 693.849 1838.05H693.659C634.133 1838.05 576.419 1830.3 521.474 1815.73ZM520.352 1816.38C463.114 1801.13 408.885 1778.5 358.744 1749.58C344.145 1804.59 336.365 1862.38 336.365 1921.99L336.366 1922.9C386.484 1951.87 440.7 1974.53 497.932 1989.81C497.932 1989.57 497.932 1989.32 497.932 1989.07C497.932 1929.37 505.726 1871.48 520.352 1816.38ZM498.849 1990.06C498.849 1989.73 498.848 1989.4 498.848 1989.07C498.848 1929.45 506.632 1871.64 521.238 1816.62C576.242 1831.2 634.015 1838.97 693.603 1838.97C678.799 1894.31 670.889 1952.46 670.848 2012.45C611.386 2012.41 553.735 2004.63 498.849 1990.06ZM497.934 1990.76C440.711 1975.51 386.496 1952.88 336.368 1923.96C336.54 1983.49 344.47 2041.19 359.201 2096.11C409.288 2125 463.461 2147.6 520.64 2162.83C505.968 2107.93 498.081 2050.26 497.934 1990.76ZM521.662 2163.1C506.943 2108.2 499.02 2050.52 498.851 1991.01C553.741 2005.56 611.391 2013.33 670.848 2013.37C670.888 2072.83 678.659 2130.48 693.211 2185.37C633.912 2185.34 576.413 2177.6 521.662 2163.1ZM520.914 2163.86C463.771 2148.68 409.621 2126.16 359.538 2097.36C375.031 2154.67 397.936 2208.94 427.159 2259.08C477.128 2287.8 531.149 2310.27 588.153 2325.42C559.083 2275.31 536.309 2221.1 520.914 2163.86ZM589.406 2325.75C560.243 2275.64 537.39 2221.4 521.937 2164.13C576.685 2178.57 634.172 2186.27 693.455 2186.29C708.711 2243.51 731.336 2297.72 760.254 2347.85C701.207 2347.81 643.947 2340.13 589.406 2325.75ZM588.805 2326.54C531.923 2311.51 477.998 2289.2 428.089 2260.67C457.545 2310.89 493.351 2356.93 534.405 2397.69C584.162 2426.3 637.939 2448.71 694.679 2463.86C653.77 2422.97 618.113 2376.84 588.805 2326.54ZM696.449 2464.33C655.341 2423.44 619.507 2377.25 590.059 2326.87C644.562 2341.16 701.77 2348.77 760.754 2348.77H760.783C789.982 2399.2 825.553 2445.47 866.397 2486.5C807.666 2486.36 750.71 2478.66 696.449 2464.33ZM697.749 2465.62C751.906 2479.78 808.731 2487.35 867.313 2487.42C907.747 2527.88 953.321 2563.2 1002.97 2592.32C944.755 2592 888.297 2584.27 834.494 2570C784.476 2541.13 738.535 2505.97 697.749 2465.62ZM695.977 2465.15C736.304 2505.24 781.695 2540.23 831.106 2569.1C718.543 2538.62 617.732 2479.57 536.943 2400.19C586.379 2428.28 639.731 2450.28 695.977 2465.15ZM1343.89 45.3611C1398.34 31.0277 1455.49 23.3709 1514.42 23.319C1571.37 38.4246 1625.35 60.8391 1675.29 89.4977C1616.25 89.6888 1559 97.5026 1504.48 112.007C1454.64 83.2163 1400.76 60.6473 1343.89 45.3611ZM1169.79 23.319C1228.73 23.3708 1285.88 31.0277 1340.32 45.3611C1283.46 60.6473 1229.58 83.2162 1179.74 112.007C1125.22 97.5025 1067.97 89.6887 1008.93 89.4977C1058.86 60.8391 1112.84 38.4246 1169.79 23.319ZM1342.11 45.8332C1285.05 61.0231 1230.99 83.5498 1180.99 112.341C1238.05 127.641 1292.12 150.272 1342.11 179.164C1392.1 150.272 1446.16 127.641 1503.22 112.342C1453.23 83.5498 1399.16 61.0231 1342.11 45.8332ZM1007.34 90.411C1066.54 90.4657 1123.95 98.1948 1178.61 112.657C1128.4 141.792 1082.32 177.249 1041.45 217.939C986.757 203.359 929.32 195.511 870.077 195.338C910.991 154.76 957.109 119.422 1007.34 90.411ZM1179.87 112.99C1129.57 142.083 1083.41 177.522 1042.47 218.213C1099.61 233.543 1153.74 256.224 1203.78 285.181C1244.71 244.403 1290.88 208.875 1341.19 179.694C1291.14 150.819 1237.01 128.225 1179.87 112.99ZM869.157 196.252C928.457 196.346 985.952 204.14 1040.69 218.688C999.24 260.087 963.172 306.878 933.632 357.92C878.81 343.35 821.23 335.543 761.843 335.449C791.453 284.401 827.607 237.619 869.157 196.252ZM1041.72 218.961C1000.22 260.338 964.116 307.121 934.55 358.165C991.764 373.458 1045.97 396.121 1096.08 425.075C1125.61 374.038 1161.66 327.25 1203.11 285.851C1153.04 256.907 1098.89 234.25 1041.72 218.961ZM761.312 336.365C820.719 336.414 878.318 344.19 933.157 358.743C904.466 408.481 881.97 462.243 866.721 518.974C811.859 504.376 754.234 496.552 694.798 496.454C710.073 439.766 732.596 386.052 761.312 336.365ZM934.075 358.987C905.365 408.716 882.857 462.477 867.607 519.21C924.836 534.522 979.051 557.208 1029.17 586.188C1044.42 529.425 1066.92 475.633 1095.62 425.869C1045.51 396.915 991.298 374.26 934.075 358.987ZM694.552 497.37C753.993 497.448 811.621 505.262 866.484 519.86C851.703 575.155 843.805 633.263 843.766 693.21C788.875 678.659 731.224 670.889 671.765 670.849C671.805 610.852 679.727 552.699 694.552 497.37ZM867.37 520.096C852.589 575.391 844.7 633.502 844.682 693.453C901.905 708.709 956.121 731.336 1006.25 760.254C1006.29 700.38 1014.18 642.34 1028.93 587.105C978.815 558.106 924.602 535.409 867.37 520.096ZM671.765 671.766C731.228 671.805 788.879 679.587 843.766 694.158C843.809 753.61 851.581 811.253 866.131 866.138C811.249 851.589 753.609 843.817 694.16 843.774C679.588 788.885 671.805 731.231 671.765 671.766ZM844.683 694.402C844.747 753.869 852.555 811.523 867.152 866.409C924.332 881.665 978.507 904.28 1028.6 933.179C1014.06 878.329 1006.3 820.724 1006.25 761.313C956.131 732.348 901.914 709.683 844.683 694.402ZM694.404 844.691C753.868 844.755 811.519 852.563 866.403 867.159C881.658 924.335 904.271 978.507 933.168 1028.6C878.321 1014.06 820.72 1006.3 761.312 1006.25C732.348 956.134 709.685 901.92 694.404 844.691ZM867.424 867.431C882.737 924.643 905.43 978.837 934.419 1028.93C991.498 1044.18 1045.58 1066.76 1095.6 1095.6C1066.76 1045.58 1044.18 991.505 1028.93 934.43C978.837 905.439 924.639 882.745 867.424 867.431ZM761.844 1007.17C821.301 1007.26 878.943 1015.1 933.816 1029.72C962.892 1079.9 998.28 1125.96 1038.89 1166.83C984.352 1152.52 927.102 1144.9 868.073 1144.9L867.693 1144.9C826.758 1103.89 791.106 1057.61 761.844 1007.17ZM935.071 1030.05C964.284 1080.31 999.842 1126.42 1040.65 1167.29C1097.06 1182.26 1150.55 1204.38 1200.1 1232.63C1160.12 1192.19 1125.25 1146.69 1096.52 1097.19C1046.45 1068.16 992.269 1045.42 935.071 1030.05ZM868.61 1145.82C927.916 1145.86 985.419 1153.61 1040.17 1168.11C1079.93 1207.91 1124.66 1242.73 1173.35 1271.58C1120.06 1257.97 1064.23 1250.73 1006.71 1250.73L1006.01 1250.73C1005.61 1250.73 1005.21 1250.73 1004.81 1250.73C954.958 1221.65 909.201 1186.32 868.61 1145.82ZM1041.94 1168.59C1082.11 1208.6 1127.33 1243.55 1176.56 1272.41C1224.34 1284.87 1270.05 1302.46 1313.06 1324.56C1273.09 1298.67 1236.05 1268.64 1202.54 1235.09C1152.7 1206.34 1098.81 1183.82 1041.94 1168.59ZM1677.12 1431.1C1627.69 1402.57 1574.29 1380.17 1517.94 1364.91C1577.5 1364.66 1635.24 1356.65 1690.18 1341.84C1746.95 1357.17 1800.73 1379.76 1850.48 1408.57C1795.3 1423.26 1737.32 1431.1 1677.51 1431.1L1677.12 1431.1ZM1515.02 1364C1574.98 1364 1633.1 1356.13 1688.41 1341.36C1634.63 1327.01 1578.19 1319.17 1519.99 1318.74C1471.05 1332.16 1419.87 1340.17 1367.15 1342.11C1417.92 1343.97 1467.25 1351.47 1514.54 1364L1515.02 1364ZM1851.73 1408.23C1802.14 1379.42 1748.52 1356.79 1691.93 1341.36C1748.52 1325.95 1802.13 1303.31 1851.71 1274.51C1908.75 1289.81 1962.79 1312.46 2012.76 1341.37C1962.8 1370.28 1908.76 1392.92 1851.73 1408.23ZM1690.18 1340.89C1746.94 1325.57 1800.72 1302.97 1850.46 1274.17C1795.94 1259.65 1738.7 1251.84 1679.65 1251.65C1631.05 1279.98 1578.57 1302.38 1523.19 1317.86C1580.9 1318.55 1636.85 1326.51 1690.18 1340.89ZM2013.67 1340.84C1963.77 1311.91 1909.8 1289.23 1852.83 1273.86C1902.88 1244.65 1948.81 1209.16 1989.53 1168.46C2046.72 1183.73 2100.89 1206.37 2150.97 1235.3C2110.08 1276.1 2063.95 1311.64 2013.67 1340.84ZM1851.58 1273.52C1901.71 1244.36 1947.72 1208.89 1988.51 1168.18C1933.74 1153.65 1876.22 1145.88 1816.9 1145.82C1776.46 1186.28 1730.87 1221.61 1681.21 1250.74C1740.1 1251.06 1797.2 1258.96 1851.58 1273.52ZM2151.64 1234.63C2101.58 1205.68 2047.43 1183.02 1990.28 1167.71C2031.28 1126.61 2066.98 1080.22 2096.27 1029.65C2153.51 1044.88 2207.75 1067.5 2257.89 1096.42C2228.54 1147.05 2192.75 1193.5 2151.64 1234.63ZM1989.26 1167.44C2030.3 1126.35 2066.04 1079.97 2095.35 1029.41C2040.5 1014.9 1982.88 1007.17 1923.46 1007.17H1923.43C1894.23 1057.6 1858.66 1103.88 1817.81 1144.9C1877.08 1145.05 1934.54 1152.87 1989.26 1167.44ZM2258.35 1095.62C2208.21 1066.7 2153.98 1044.08 2096.75 1028.83C2125.69 978.699 2148.35 924.478 2163.62 867.245C2220.87 882.499 2275.09 905.138 2325.23 934.081C2309.95 991.302 2287.3 1045.51 2258.35 1095.62ZM2095.83 1028.59C2124.79 978.465 2147.46 924.245 2162.74 867.009C2107.86 852.465 2050.21 844.708 1990.76 844.69C1975.5 901.911 1952.88 956.123 1923.96 1006.25C1983.37 1006.29 2040.98 1014.05 2095.83 1028.59ZM2325.47 933.163C2275.33 904.24 2221.1 881.612 2163.86 866.359C2178.43 811.483 2186.22 753.847 2186.28 694.402C2243.52 709.683 2297.73 732.347 2347.85 761.313C2347.8 820.722 2340.02 878.322 2325.47 933.163ZM2162.97 866.123C2177.54 811.248 2185.32 753.608 2185.37 694.158C2130.48 679.587 2072.83 671.805 2013.37 671.766C2013.33 731.228 2005.56 788.88 1991 843.774C2050.45 843.813 2108.09 851.579 2162.97 866.123ZM2347.85 760.254C2297.72 731.336 2243.51 708.709 2186.28 693.453C2186.27 633.44 2178.37 575.267 2163.58 519.912C2220.76 535.145 2274.93 557.747 2325.02 586.638C2339.87 642.008 2347.81 700.207 2347.85 760.254ZM2185.37 693.21C2185.33 633.18 2177.4 574.997 2162.56 519.641C2107.68 505.115 2050.05 497.374 1990.61 497.37C2005.42 552.704 2013.33 610.856 2013.37 670.849C2072.83 670.889 2130.48 678.659 2185.37 693.21ZM2324.68 585.386C2274.6 556.588 2220.45 534.065 2163.31 518.891C2148.09 462.313 2125.67 408.69 2097.08 359.067C2154.2 374.34 2208.31 396.97 2258.34 425.877C2286.95 475.395 2309.41 528.913 2324.68 585.386ZM2162.28 518.62C2147.01 462.007 2124.51 408.361 2095.83 358.734C2040.98 344.182 1983.38 336.409 1923.96 336.365C1952.63 386.061 1975.12 439.774 1990.37 496.453L1990.56 496.453C2049.91 496.453 2107.47 504.157 2162.28 518.62ZM2257.42 424.289C2207.45 395.572 2153.43 373.103 2096.43 357.945C2066.94 306.981 2030.94 260.255 1989.57 218.902C2046.31 234.056 2100.08 256.466 2149.83 285.079C2191.48 326.434 2227.73 373.221 2257.42 424.289ZM2095.18 357.613C2065.55 306.567 2029.37 259.79 1987.8 218.432C1933.08 203.978 1875.62 196.27 1816.36 196.252C1857.81 237.639 1893.88 284.418 1923.43 335.448H1923.46C1982.81 335.448 2040.37 343.152 2095.18 357.613ZM2147.3 282.572C2097.86 254.482 2044.51 232.486 1988.27 217.608C1947.95 177.522 1902.56 142.524 1853.15 113.658C1965.71 144.137 2066.51 203.199 2147.3 282.572ZM1986.5 217.142C1945.72 176.788 1899.78 141.632 1849.77 112.75C1795.17 98.274 1737.83 90.5151 1678.71 90.4118C1728.74 119.467 1774.68 154.801 1815.44 195.335L1816.14 195.335C1875.01 195.335 1932.1 202.911 1986.5 217.142ZM1677.51 89.4941C1735.96 89.4941 1792.67 96.9649 1846.72 111.004C1749.71 55.6589 1637.55 23.8424 1517.99 23.3252C1574.31 38.5774 1627.7 60.9784 1677.12 89.4942L1677.51 89.4941ZM1178.63 2570.08C1123.76 2584.6 1066.14 2592.33 1006.71 2592.33C1006.07 2592.33 1005.43 2592.33 1004.8 2592.33C954.953 2563.25 909.199 2527.92 868.61 2487.42C928.378 2487.37 986.319 2479.51 1041.47 2464.81C1082.34 2505.5 1128.42 2540.95 1178.63 2570.08ZM1341.19 2503.05C1291.14 2531.92 1237.02 2554.51 1179.88 2569.75C1129.59 2540.66 1083.43 2505.22 1042.49 2464.54C1099.62 2449.2 1153.75 2426.52 1203.78 2397.57C1244.72 2438.34 1290.89 2473.87 1341.19 2503.05ZM1479.61 2397.09C1438.65 2437.86 1392.45 2473.37 1342.11 2502.52C1291.76 2473.37 1245.56 2437.86 1204.61 2397.09C1254.95 2367.86 1301.16 2332.27 1342.11 2291.43C1383.06 2332.27 1429.26 2367.86 1479.61 2397.09ZM1586.7 2258.31C1557.29 2308.92 1521.44 2355.33 1480.28 2396.42C1429.92 2367.21 1383.71 2331.63 1342.76 2290.78C1383.91 2249.62 1419.74 2203.15 1449.13 2152.48C1490.09 2193.39 1536.32 2229.04 1586.7 2258.31ZM1654.22 2096.08C1638.88 2153.27 1616.17 2207.45 1587.16 2257.52C1536.78 2228.24 1490.56 2192.59 1449.6 2151.66C1478.55 2101.6 1501.21 2047.45 1516.52 1990.3C1557.53 2031.2 1603.8 2066.83 1654.22 2096.08ZM1677.05 1923.43C1676.92 1982.8 1669.08 2040.36 1654.47 2095.16C1604.04 2065.89 1557.78 2030.22 1516.8 1989.28C1531.36 1934.56 1539.19 1877.1 1539.33 1817.83C1580.35 1858.67 1626.63 1894.24 1677.05 1923.43ZM1654.49 1748.92C1669.21 1804.13 1677.05 1862.14 1677.05 1921.99L1677.05 1922.37C1626.61 1893.11 1580.33 1857.47 1539.33 1816.54L1539.33 1816.16C1539.33 1756.4 1531.52 1698.47 1516.87 1643.33C1557.87 1684.16 1604.11 1719.72 1654.49 1748.92ZM1588.3 1588.44C1616.73 1637.89 1639.02 1691.31 1654.16 1747.66C1603.69 1718.33 1557.4 1682.59 1516.4 1641.56C1501.45 1585.9 1479.52 1533.09 1451.6 1484.14C1492.39 1524.45 1538.31 1559.57 1588.3 1588.44ZM1481.13 1448.41C1522.26 1489.61 1558.05 1536.13 1587.39 1586.85C1537.03 1557.61 1490.82 1522.01 1449.88 1481.13C1423.86 1436.06 1392.76 1394.28 1357.36 1356.6C1394.84 1391.71 1436.36 1422.57 1481.13 1448.41ZM1361.46 1353.1C1403.92 1379.64 1443.2 1410.8 1478.59 1445.87C1430.35 1417.7 1385.95 1383.68 1346.35 1344.78C1351.35 1347.61 1356.38 1350.39 1361.46 1353.1ZM1337.84 1337.95C1332.85 1335.12 1327.82 1332.35 1322.76 1329.64C1280.3 1303.11 1241.04 1271.96 1205.65 1236.9C1253.87 1265.06 1298.26 1299.07 1337.84 1337.95ZM1003 1250.74C953.342 1221.61 907.757 1186.28 867.314 1145.82C807.991 1145.88 750.473 1153.65 695.707 1168.18C736.497 1208.89 782.503 1244.36 832.636 1273.52C887.012 1258.96 944.111 1251.06 1003 1250.74ZM831.39 1273.86C781.339 1244.65 735.409 1209.16 694.683 1168.46C637.5 1183.73 583.328 1206.37 533.246 1235.3C574.137 1276.1 620.269 1311.64 670.546 1340.84C720.447 1311.91 774.418 1289.23 831.39 1273.86ZM669.633 1341.37C619.392 1312.14 573.291 1276.58 532.424 1235.77C482.046 1264.97 435.821 1300.54 394.85 1341.38C435.819 1382.21 482.042 1417.78 532.418 1446.98C573.287 1406.17 619.39 1370.6 669.633 1341.37ZM531.747 1447.65C481.384 1418.43 435.169 1382.86 394.201 1342.02C352.787 1383.42 316.762 1430.2 287.27 1481.23C328.249 1522.12 374.493 1557.74 424.897 1586.97C454.365 1535.91 490.361 1489.09 531.747 1447.65ZM424.44 1587.77C374.037 1558.53 327.789 1522.93 286.796 1482.05C258.109 1531.85 235.638 1585.69 220.443 1642.5C261.454 1683.38 307.731 1718.98 358.167 1748.19C373.348 1691.4 395.791 1637.57 424.44 1587.77ZM357.922 1749.11C307.488 1719.92 261.203 1684.36 220.17 1643.52C205.532 1698.6 197.731 1756.47 197.731 1816.16L197.731 1816.54C238.732 1857.47 285.007 1893.11 335.449 1922.37L335.449 1921.99C335.449 1862.22 343.262 1804.27 357.922 1749.11ZM335.45 1923.43C285.027 1894.24 238.754 1858.67 197.733 1817.84C197.878 1877.3 205.767 1934.95 220.445 1989.83C261.432 2030.68 307.677 2066.26 358.078 2095.46C343.435 2040.57 335.575 1982.91 335.45 1923.43ZM358.413 2096.71C308.095 2067.65 261.9 2032.24 220.92 1991.59C236.421 2048.91 259.334 2103.18 288.567 2153.32C329.405 2193.85 375.433 2229.16 425.564 2258.16C396.533 2208.08 373.79 2153.91 358.413 2096.71ZM426.491 2259.75C455.556 2309.57 490.855 2355.31 531.317 2395.9C431.94 2338.05 348.791 2255.38 290.363 2156.38C331.025 2196.33 376.751 2231.14 426.491 2259.75ZM1505.6 112.657C1560.27 98.1948 1617.67 90.4658 1676.87 90.411C1727.11 119.422 1773.22 154.76 1814.14 195.338C1754.9 195.511 1697.46 203.359 1642.77 217.939C1601.9 177.249 1555.81 141.792 1505.6 112.657ZM1504.35 112.99C1447.21 128.225 1393.08 150.819 1343.02 179.694C1393.33 208.875 1439.5 244.403 1480.44 285.181C1530.48 256.224 1584.61 233.543 1641.75 218.213C1600.81 177.522 1554.64 142.083 1504.35 112.99ZM1342.11 180.223C1291.76 209.373 1245.56 244.884 1204.6 285.657C1254.95 314.888 1301.15 350.477 1342.11 391.326C1383.06 350.477 1429.26 314.888 1479.62 285.657C1438.66 244.884 1392.45 209.373 1342.11 180.223ZM1203.93 286.327C1162.47 327.711 1126.4 374.495 1096.87 425.534C1147.28 454.752 1193.54 490.342 1234.55 531.2C1264.04 480.168 1300.06 433.379 1341.46 391.973C1300.5 351.124 1254.29 315.541 1203.93 286.327ZM1096.41 426.328C1067.71 476.093 1045.22 529.891 1029.99 586.664C1080.42 615.916 1126.69 651.544 1167.69 692.445C1182.91 635.647 1205.39 581.821 1234.08 532.022C1193.08 491.147 1146.83 455.547 1096.41 426.328ZM1007.17 760.753V760.784C1057.59 789.979 1103.86 825.545 1144.88 866.383C1144.9 806.595 1152.74 748.635 1167.42 693.467C1126.44 652.524 1080.18 616.859 1029.75 587.581C1015.02 642.822 1007.17 700.871 1007.17 760.753ZM1007.17 761.844C1007.26 821.305 1015.1 878.951 1029.72 933.827C1080.11 963.024 1126.35 998.586 1167.34 1039.41C1152.78 984.605 1144.98 927.045 1144.88 867.678C1103.88 826.75 1057.61 791.103 1007.17 761.844ZM1030.06 935.082C1045.42 992.276 1068.16 1046.45 1097.19 1096.52C1147.49 1125.71 1193.64 1161.24 1234.57 1202.02C1205.72 1152.11 1183.11 1098.14 1167.81 1041.18C1126.81 1000.15 1080.53 964.419 1030.06 935.082ZM1098.12 1098.12C1127.22 1147.99 1162.57 1193.76 1203.1 1234.36C1247.87 1260.19 1289.38 1291.05 1326.86 1326.15C1292.37 1289.45 1261.97 1248.87 1236.38 1205.13C1195.28 1163.75 1148.82 1127.7 1098.12 1098.12ZM1815.43 1536.94C1774.67 1496.4 1728.74 1461.07 1678.7 1432.01C1738.49 1431.91 1796.44 1423.99 1851.6 1409.22C1901.73 1438.38 1947.74 1473.86 1988.53 1514.56C1933.52 1529.16 1875.74 1536.94 1816.14 1536.94L1815.43 1536.94ZM1989.55 1514.29C1948.83 1473.59 1902.89 1438.09 1852.84 1408.88C1909.81 1393.51 1963.77 1370.83 2013.67 1341.9C2063.95 1371.1 2110.08 1406.65 2150.98 1447.45C2100.9 1476.38 2046.73 1499.02 1989.55 1514.29ZM2151.8 1446.98C2110.93 1406.17 2064.83 1370.6 2014.58 1341.37C2064.82 1312.14 2110.92 1276.58 2151.79 1235.77C2202.17 1264.97 2248.4 1300.54 2289.37 1341.38C2248.4 1382.21 2202.17 1417.78 2151.8 1446.98ZM2290.01 1340.73C2249.05 1299.89 2202.83 1264.32 2152.46 1235.1C2193.55 1193.96 2229.33 1147.51 2258.68 1096.87C2309.11 1126.05 2355.39 1161.61 2396.41 1202.45C2367.02 1253.12 2331.18 1299.59 2290.01 1340.73ZM2396.88 1201.63C2355.85 1160.81 2309.57 1125.26 2259.14 1096.08C2288.09 1045.97 2310.75 991.768 2326.05 934.556C2376.49 963.769 2422.76 999.367 2463.77 1040.24C2448.49 1097.41 2425.83 1151.57 2396.88 1201.63ZM2464.05 1039.22C2423.01 998.388 2376.73 962.826 2326.29 933.638C2340.86 878.814 2348.67 821.233 2348.77 761.843C2399.21 791.101 2445.48 826.748 2486.48 867.676C2486.39 926.98 2478.6 984.477 2464.05 1039.22ZM2486.48 866.383C2445.46 825.545 2399.19 789.979 2348.77 760.784V760.753C2348.77 700.768 2340.9 642.621 2326.14 587.287C2376.54 616.489 2422.78 652.067 2463.77 692.917C2478.57 748.244 2486.47 806.393 2486.48 866.383ZM2463.29 691.152C2422.31 650.5 2376.12 615.096 2325.8 586.034C2310.65 529.681 2288.35 476.258 2259.93 426.798C2310.39 456.137 2356.66 491.872 2397.65 532.893C2425.93 582.06 2448.15 635.153 2463.29 691.152ZM2395.89 529.841C2355.07 489.4 2309.08 454.162 2259.01 425.206C2229.71 374.534 2193.97 328.048 2152.92 286.865C2253.45 345.389 2337.37 429.312 2395.89 529.841ZM1040.71 2464.06C985.632 2478.7 927.764 2486.5 868.073 2486.5H867.693C826.758 2445.5 791.105 2399.21 761.843 2348.77C821.5 2348.67 879.333 2340.79 934.38 2326.1C963.784 2376.65 999.6 2423.01 1040.71 2464.06ZM1203.11 2396.9C1153.05 2425.84 1098.9 2448.5 1041.74 2463.79C1000.58 2422.75 964.728 2376.4 935.297 2325.85C992.48 2310.49 1046.65 2287.78 1096.72 2258.77C1126.13 2309.38 1161.97 2355.8 1203.11 2396.9ZM1341.46 2290.78C1300.51 2331.63 1254.3 2367.21 1203.93 2396.42C1162.77 2355.33 1126.92 2308.92 1097.51 2258.31C1147.9 2229.03 1194.12 2193.39 1235.09 2152.48C1264.48 2203.15 1300.31 2249.62 1341.46 2290.78ZM1448.46 2151.81C1419.08 2202.49 1383.26 2248.98 1342.11 2290.13C1300.96 2248.98 1265.13 2202.49 1235.76 2151.81C1276.91 2110.59 1312.74 2064.06 1342.11 2013.32C1371.48 2064.06 1407.3 2110.6 1448.46 2151.81ZM1515.77 1989.55C1500.5 2046.74 1477.86 2100.91 1448.93 2150.99C1407.78 2109.75 1371.98 2063.18 1342.64 2012.4C1371.51 1962.35 1394.1 1908.22 1409.35 1851.1C1438.75 1901.83 1474.6 1948.35 1515.77 1989.55ZM1538.42 1816.92C1538.35 1876.24 1530.58 1933.76 1516.05 1988.53C1474.87 1947.26 1439.04 1900.66 1409.69 1849.84C1424.15 1795.22 1431.91 1737.86 1432.01 1678.7C1461.42 1729.35 1497.26 1775.79 1538.42 1816.92ZM1515.58 1642.04C1530.43 1697.4 1538.37 1755.59 1538.42 1815.62C1497.22 1774.34 1461.37 1727.72 1432.01 1676.88C1431.96 1616.98 1424.06 1558.91 1409.28 1503.65C1438.65 1554.35 1474.45 1600.85 1515.58 1642.04ZM1449.14 1481.7C1477.55 1530.94 1499.88 1584.14 1515.1 1640.26C1473.69 1598.6 1437.72 1551.52 1408.35 1500.19C1394.54 1449.65 1374.97 1401.48 1350.4 1356.44C1378.3 1402.07 1411.5 1444.11 1449.14 1481.7ZM1447.34 1478.58C1418.67 1429.5 1383.95 1384.39 1344.2 1344.28C1372.86 1393.36 1407.58 1438.47 1447.34 1478.58ZM866.401 1144.9C825.556 1103.88 789.983 1057.6 760.783 1007.17H760.754C701.334 1007.17 643.72 1014.9 588.862 1029.41C618.18 1079.97 653.916 1126.35 694.957 1167.43C749.672 1152.87 807.134 1145.05 866.401 1144.9ZM693.935 1167.71C652.936 1126.61 617.236 1080.22 587.944 1029.65C530.7 1044.88 476.468 1067.5 426.329 1096.41C455.68 1147.05 491.468 1193.5 532.574 1234.63C582.635 1205.68 636.781 1183.02 693.935 1167.71ZM531.753 1235.1C490.663 1193.96 454.885 1147.51 425.535 1096.87C375.104 1126.05 328.826 1161.61 287.807 1202.45C317.199 1253.12 353.038 1299.59 394.201 1340.73C435.171 1299.89 481.388 1264.32 531.753 1235.1ZM393.552 1341.38C352.39 1300.24 316.545 1253.78 287.136 1203.12C245.743 1244.45 209.726 1291.16 180.225 1342.11C209.598 1392.84 245.432 1439.37 286.599 1480.56C316.108 1429.54 352.139 1382.77 393.552 1341.38ZM286.125 1481.38C244.951 1440.21 209.101 1393.72 179.695 1343.02C150.99 1392.78 128.492 1446.57 113.261 1503.34C142.655 1554.06 178.508 1600.57 219.694 1641.75C234.929 1584.97 257.425 1531.16 286.125 1481.38ZM219.42 1642.78C178.235 1601.66 142.364 1555.23 112.927 1504.59C98.2915 1559.56 90.4672 1617.31 90.4123 1676.88C119.774 1727.72 155.618 1774.34 196.814 1815.62C196.861 1755.86 204.718 1697.92 219.42 1642.78ZM196.814 1816.92C155.661 1775.79 119.821 1729.35 90.413 1678.71C90.5167 1737.85 98.2779 1795.19 112.758 1849.79C142.118 1900.63 177.959 1947.25 219.152 1988.53C204.641 1933.76 196.88 1876.24 196.814 1816.92ZM219.623 1990.3C234.847 2047.13 257.344 2100.99 286.054 2150.81C204.933 2069.46 144.591 1967.37 113.666 1853.18C143.013 1903.41 178.698 1949.48 219.623 1990.3ZM1643.52 218.688C1698.26 204.14 1755.76 196.346 1815.06 196.252C1856.61 237.619 1892.76 284.401 1922.37 335.449C1862.98 335.543 1805.41 343.35 1750.58 357.92C1721.04 306.878 1684.98 260.086 1643.52 218.688ZM1642.5 218.961C1585.33 234.25 1531.17 256.907 1481.11 285.851C1522.55 327.249 1558.61 374.038 1588.14 425.074C1638.25 396.121 1692.45 373.458 1749.67 358.165C1720.1 307.121 1683.99 260.338 1642.5 218.961ZM1480.29 286.327C1429.92 315.541 1383.71 351.124 1342.76 391.974C1384.16 433.379 1420.17 480.168 1449.67 531.2C1490.67 490.341 1536.93 454.752 1587.34 425.534C1557.81 374.495 1521.75 327.711 1480.29 286.327ZM1342.11 392.621C1300.71 434.028 1264.7 480.825 1235.22 531.87C1276.6 573.217 1312.61 619.939 1342.11 670.899C1371.61 619.939 1407.61 573.217 1448.99 531.87C1419.52 480.825 1383.51 434.028 1342.11 392.621ZM1234.75 532.693C1206.07 582.513 1183.62 636.366 1168.44 693.193C1209.75 734.518 1245.69 781.201 1275.13 832.111C1290.38 775.356 1312.88 721.573 1341.58 671.815C1312.11 620.818 1276.12 574.064 1234.75 532.693ZM1145.8 866.594L1145.8 867.298C1186.95 908.424 1222.79 954.868 1252.2 1005.51C1252.31 945.993 1260.16 888.293 1274.8 833.364C1245.39 782.369 1209.47 735.608 1168.17 694.217C1153.58 749.22 1145.8 806.999 1145.8 866.594ZM1145.8 868.597C1145.98 928.11 1153.91 985.798 1168.63 1040.7C1209.43 1081.55 1244.99 1127.63 1274.21 1177.85C1259.9 1123.41 1252.26 1066.26 1252.2 1007.34C1222.84 956.501 1187 909.877 1145.8 868.597ZM1169.11 1042.48C1184.7 1099.94 1207.73 1154.34 1237.11 1204.56C1273.91 1241.63 1306.42 1282.97 1333.82 1327.77C1308.79 1281.91 1288.96 1232.8 1275.11 1181.24C1245.88 1130.42 1210.17 1083.79 1169.11 1042.48ZM1239.01 1207.79C1266.74 1254.6 1300 1297.73 1337.89 1336.31C1310.16 1289.51 1276.9 1246.37 1239.01 1207.79ZM1923.43 1677.05C1893.89 1626.02 1857.81 1579.24 1816.36 1537.85C1876.14 1537.83 1934.11 1530 1989.28 1515.31C2030.66 1556.74 2066.65 1603.55 2096.1 1654.61C2041.02 1669.25 1983.15 1677.05 1923.46 1677.05H1923.43ZM2097.02 1654.36C2067.59 1603.31 2031.64 1556.49 1990.3 1515.04C2047.45 1499.73 2101.59 1477.06 2151.65 1448.12C2193.05 1489.55 2229.06 1536.37 2258.52 1587.43C2208.43 1616.4 2154.23 1639.07 2097.02 1654.36ZM2259.32 1586.97C2229.85 1535.91 2193.85 1489.09 2152.47 1447.65C2202.83 1418.43 2249.05 1382.86 2290.01 1342.02C2331.43 1383.41 2367.45 1430.2 2396.94 1481.23C2355.97 1522.12 2309.72 1557.74 2259.32 1586.97ZM2397.62 1480.56C2368.11 1429.54 2332.08 1382.77 2290.66 1341.38C2331.83 1300.24 2367.67 1253.78 2397.08 1203.12C2438.47 1244.45 2474.49 1291.16 2503.99 1342.11C2474.62 1392.84 2438.78 1439.37 2397.62 1480.56ZM2504.52 1341.19C2474.99 1290.28 2438.95 1243.6 2397.55 1202.3C2426.51 1152.26 2449.19 1098.13 2464.52 1040.99C2505.83 1082.3 2541.78 1128.97 2571.22 1179.87C2555.99 1237.01 2533.39 1291.14 2504.52 1341.19ZM2571.56 1178.61C2542.07 1127.8 2506.11 1081.21 2464.8 1039.97C2479.38 985.277 2487.23 927.837 2487.4 868.591C2528.6 909.872 2564.44 956.497 2593.8 1007.34C2593.75 1066.54 2586.02 1123.95 2571.56 1178.61ZM2593.8 1005.51C2564.39 954.865 2528.55 908.423 2487.4 867.297L2487.4 866.594C2487.4 806.999 2479.64 749.219 2465.06 694.209C2505.91 735.147 2541.5 781.34 2570.72 831.686C2585.67 887.112 2593.7 945.38 2593.8 1005.51ZM2569.79 828.276C2540.59 778.548 2505.17 732.913 2464.59 692.442C2449.72 636.925 2427.9 584.247 2400.14 535.393C2479.61 615.766 2538.9 716.134 2569.79 828.276ZM933.903 2325.27C878.84 2339.96 820.989 2347.8 761.312 2347.85C732.348 2297.73 709.684 2243.52 694.404 2186.29C753.981 2186.23 811.74 2178.4 866.725 2163.77C882.106 2220.99 904.858 2275.18 933.903 2325.27ZM1096.26 2257.98C1046.19 2286.98 992.012 2309.69 934.82 2325.03C905.757 2274.95 882.992 2220.75 867.611 2163.53C924.839 2148.22 979.053 2125.54 1029.17 2096.56C1044.53 2153.74 1067.25 2207.91 1096.26 2257.98ZM1234.61 2151.66C1193.66 2192.59 1147.44 2228.24 1097.05 2257.52C1068.05 2207.44 1045.33 2153.27 1029.99 2096.08C1080.42 2066.83 1126.69 2031.2 1167.69 1990.3C1183 2047.45 1205.67 2101.6 1234.61 2151.66ZM1341.58 2012.4C1312.24 2063.18 1276.43 2109.75 1235.28 2150.99C1206.35 2100.91 1183.71 2046.74 1168.44 1989.55C1209.62 1948.35 1245.47 1901.83 1274.86 1851.1C1290.11 1908.22 1312.71 1962.35 1341.58 2012.4ZM1408.7 1849.97C1393.52 1907.17 1370.96 1961.37 1342.11 2011.48C1313.26 1961.37 1290.7 1907.17 1275.51 1849.97C1304.3 1800.07 1326.85 1746.12 1342.11 1689.18C1357.36 1746.12 1379.91 1800.07 1408.7 1849.97ZM1431.1 1677.12L1431.1 1677.51C1431.1 1736.68 1423.43 1794.06 1409.04 1848.71C1380.25 1798.65 1357.74 1744.52 1342.58 1687.4C1356.92 1633.29 1364.66 1576.49 1364.91 1517.93C1380.16 1574.28 1402.57 1627.69 1431.1 1677.12ZM1407.49 1500.55C1422.69 1556.24 1430.9 1614.81 1431.09 1675.28C1402.44 1625.34 1380.02 1571.36 1364.92 1514.41C1364.87 1459.07 1358.12 1405.3 1345.44 1353.86C1360.34 1405.59 1381.3 1454.76 1407.49 1500.55ZM1406.5 1496.94C1391.87 1444.51 1371.03 1394.68 1344.82 1348.28C1359.44 1400.71 1380.29 1450.54 1406.5 1496.94ZM760.254 1006.25C731.337 956.123 708.711 901.911 693.455 844.69C634.003 844.708 576.359 852.465 521.478 867.009C536.757 924.245 559.421 978.465 588.386 1028.59C643.237 1014.05 700.842 1006.29 760.254 1006.25ZM587.468 1028.83C558.522 978.699 535.87 924.478 520.592 867.245C463.35 882.499 409.121 905.138 358.989 934.08C374.262 991.302 396.917 1045.51 425.87 1095.62C476.008 1066.7 530.234 1044.08 587.468 1028.83ZM425.076 1096.08C396.123 1045.97 373.461 991.768 358.167 934.556C307.73 963.769 261.453 999.367 220.441 1040.24C235.73 1097.41 258.387 1151.57 287.332 1201.63C328.365 1160.81 374.646 1125.26 425.076 1096.08ZM286.66 1202.3C257.704 1152.26 235.022 1098.13 219.692 1040.99C178.381 1082.3 142.436 1128.97 112.992 1179.87C128.227 1237.01 150.82 1291.14 179.695 1341.19C209.229 1290.28 245.262 1243.6 286.66 1202.3ZM179.165 1342.11C150.274 1292.12 127.643 1238.06 112.343 1180.99C83.6747 1230.78 61.2173 1284.59 46.0293 1341.37C61.2649 1398.33 83.8155 1452.31 112.613 1502.22C127.908 1445.53 150.443 1391.81 179.165 1342.11ZM112.277 1503.47C83.4807 1453.72 60.8882 1399.92 45.557 1343.15C31.0973 1397.81 23.3702 1455.22 23.3167 1514.41C38.4225 1571.37 60.8383 1625.35 89.4989 1675.29C89.691 1615.88 97.6003 1558.29 112.277 1503.47ZM89.4954 1677.12L89.4953 1677.51C89.4953 1735.97 96.9686 1792.68 111.012 1846.75C55.6579 1749.73 23.8372 1637.55 23.3228 1517.98C38.5753 1574.31 60.9775 1627.7 89.4954 1677.12ZM1751.06 358.743C1805.9 344.19 1863.5 336.414 1922.9 336.365C1951.62 386.052 1974.14 439.766 1989.42 496.454C1929.98 496.553 1872.36 504.376 1817.49 518.974C1802.25 462.243 1779.75 408.481 1751.06 358.743ZM1750.14 358.987C1692.92 374.26 1638.71 396.915 1588.59 425.868C1617.3 475.633 1639.8 529.425 1655.04 586.188C1705.16 557.208 1759.38 534.522 1816.61 519.21C1801.36 462.476 1778.85 408.716 1750.14 358.987ZM1587.8 426.327C1537.39 455.547 1491.13 491.146 1450.14 532.021C1478.83 581.82 1501.31 635.647 1516.52 692.445C1557.53 651.544 1603.8 615.916 1654.22 586.664C1639 529.891 1616.5 476.093 1587.8 426.327ZM1449.47 532.692C1408.09 574.064 1372.1 620.818 1342.64 671.815C1371.34 721.573 1393.84 775.357 1409.08 832.112C1438.53 781.202 1474.47 734.518 1515.77 693.193C1500.6 636.366 1478.14 582.513 1449.47 532.692ZM1342.11 672.732C1313.42 722.552 1290.96 776.407 1275.78 833.235C1304.44 883.008 1326.9 936.804 1342.11 993.566C1357.31 936.804 1379.77 883.009 1408.43 833.236C1393.25 776.407 1370.79 722.553 1342.11 672.732ZM1253.12 1006.71L1253.12 1007.09C1281.64 1056.52 1304.05 1109.92 1319.3 1166.27C1319.42 1107.19 1327.18 1049.91 1341.63 995.347C1326.52 938.398 1304.11 884.425 1275.45 834.492C1260.88 889.447 1253.12 947.171 1253.12 1006.71ZM1253.12 1008.94C1253.31 1068.39 1261.25 1126.03 1275.97 1180.88C1302.51 1227.04 1323.73 1276.66 1338.77 1328.89C1326.21 1277.91 1319.47 1224.64 1319.3 1169.81C1304.2 1112.86 1281.78 1058.88 1253.12 1008.94ZM1276.92 1184.4C1291.73 1238.41 1313.13 1289.7 1340.2 1337.34C1325.39 1283.33 1303.99 1232.04 1276.92 1184.4ZM1990.37 1838.05C1975.12 1781.38 1952.63 1727.66 1923.96 1677.97C1983.64 1677.92 2041.5 1670.09 2096.57 1655.43C2125.19 1705.2 2147.59 1758.98 2162.74 1815.73C2107.8 1830.3 2050.08 1838.05 1990.56 1838.05H1990.37ZM2163.63 1815.5C2148.48 1758.75 2126.08 1704.96 2097.49 1655.19C2154.69 1639.87 2208.88 1617.19 2258.98 1588.23C2287.63 1638.03 2310.07 1691.86 2325.23 1748.66C2275.1 1777.61 2220.87 1800.24 2163.63 1815.5ZM2326.05 1748.19C2310.87 1691.4 2288.42 1637.57 2259.78 1587.77C2310.18 1558.53 2356.43 1522.93 2397.42 1482.05C2426.11 1531.85 2448.58 1585.69 2463.77 1642.5C2422.76 1683.38 2376.48 1718.98 2326.05 1748.19ZM2464.52 1641.75C2449.29 1584.97 2426.79 1531.16 2398.09 1481.38C2439.26 1440.21 2475.11 1393.72 2504.52 1343.02C2533.22 1392.78 2555.72 1446.57 2570.95 1503.34C2541.56 1554.06 2505.71 1600.58 2464.52 1641.75ZM2571.6 1502.22C2556.31 1445.53 2533.77 1391.81 2505.05 1342.11C2533.94 1292.12 2556.57 1238.05 2571.87 1180.99C2600.54 1230.78 2623 1284.59 2638.19 1341.37C2622.95 1398.33 2600.4 1452.31 2571.6 1502.22ZM2638.66 1339.6C2623.37 1283 2600.88 1229.36 2572.21 1179.74C2586.71 1125.22 2594.52 1067.97 2594.72 1008.92C2623.37 1058.86 2645.79 1112.84 2660.9 1169.79C2660.72 1228.47 2653 1285.38 2638.66 1339.6ZM2660.9 1166.25C2645.64 1109.92 2623.24 1056.52 2594.72 1007.09V1006.71C2594.72 947.267 2586.99 889.631 2572.49 834.749C2628.51 932.453 2660.64 1045.61 2660.9 1166.25ZM866.488 2162.88C811.503 2177.51 753.741 2185.33 694.16 2185.37C679.588 2130.49 671.805 2072.83 671.765 2013.37C731.225 2013.33 788.876 2005.56 843.768 1991.01C843.936 2050.43 851.826 2108.04 866.488 2162.88ZM1028.93 2095.64C978.817 2124.64 924.604 2147.34 867.374 2162.65C852.712 2107.81 844.831 2050.19 844.684 1990.76C901.908 1975.51 956.123 1952.88 1006.25 1923.96C1006.42 1983.31 1014.3 2040.86 1028.93 2095.64ZM1167.42 1989.28C1126.44 2030.22 1080.18 2065.89 1029.75 2095.16C1015.14 2040.36 1007.29 1982.8 1007.17 1923.43C1057.59 1894.24 1103.86 1858.67 1144.89 1817.83C1145.03 1877.1 1152.86 1934.56 1167.42 1989.28ZM1274.53 1849.84C1245.18 1900.66 1209.35 1947.26 1168.17 1988.53C1153.64 1933.76 1145.87 1876.24 1145.8 1816.92C1186.95 1775.79 1222.79 1729.35 1252.2 1678.71C1252.31 1737.86 1260.06 1795.22 1274.53 1849.84ZM1341.63 1687.4C1326.48 1744.52 1303.97 1798.65 1275.18 1848.72C1260.78 1794.06 1253.12 1736.68 1253.12 1677.51L1253.12 1677.12C1281.64 1627.69 1304.05 1574.28 1319.3 1517.93C1319.55 1576.49 1327.3 1633.29 1341.63 1687.4ZM1364 1514.53L1364 1515.03C1364 1573.97 1356.39 1631.14 1342.11 1685.6C1327.82 1631.14 1320.21 1573.97 1320.21 1515.03L1320.21 1514.53C1332.75 1467.25 1340.25 1417.92 1342.11 1367.15C1343.97 1417.92 1351.47 1467.25 1364 1514.53ZM1363.99 1510.87C1363.64 1454.05 1356.23 1398.9 1342.58 1346.27C1342.92 1403.09 1350.34 1458.24 1363.99 1510.87ZM693.211 843.774C678.659 788.88 670.888 731.227 670.848 671.766C611.386 671.805 553.735 679.587 498.849 694.158C498.892 753.608 506.674 811.248 521.242 866.123C576.124 851.579 633.764 843.813 693.211 843.774ZM520.356 866.359C505.788 811.483 497.996 753.847 497.932 694.402C440.7 709.683 386.484 732.347 336.365 761.313C336.414 820.722 344.191 878.322 358.745 933.163C408.887 904.24 463.117 881.612 520.356 866.359ZM357.922 933.638C343.351 878.814 335.544 821.233 335.449 761.843C285.008 791.102 238.733 826.748 197.732 867.676C197.825 926.98 205.62 984.477 220.168 1039.22C261.202 998.388 307.487 962.826 357.922 933.638ZM219.419 1039.97C204.837 985.277 196.99 927.837 196.817 868.591C155.619 909.873 119.775 956.499 90.4123 1007.34C90.4668 1066.54 98.1961 1123.95 112.659 1178.62C142.146 1127.8 178.109 1081.21 219.419 1039.97ZM112.008 1179.74C97.5038 1125.22 89.6898 1067.97 89.4989 1008.92C60.8401 1058.86 38.4253 1112.84 23.3196 1169.79C23.4978 1228.47 31.2163 1285.38 45.557 1339.6C60.8405 1283 83.3402 1229.36 112.008 1179.74ZM45.0802 1341.37C30.6206 1395.51 22.7597 1452.35 22.4118 1510.96C8.4135 1457.02 0.964618 1400.43 0.964618 1342.11C0.964618 1283.77 8.41704 1227.17 22.4218 1173.21C22.8882 1231.32 30.7384 1287.67 45.0802 1341.37ZM1817.73 519.859C1872.59 505.262 1930.22 497.448 1989.66 497.37C2004.49 552.699 2012.41 610.852 2012.45 670.849C1952.99 670.889 1895.34 678.659 1840.45 693.21C1840.41 633.263 1832.51 575.155 1817.73 519.859ZM1816.85 520.096C1759.61 535.409 1705.4 558.106 1655.29 587.105C1670.04 642.34 1677.92 700.38 1677.97 760.254C1728.09 731.336 1782.31 708.709 1839.53 693.453C1839.52 633.502 1831.63 575.391 1816.85 520.096ZM1654.47 587.581C1604.04 616.859 1557.78 652.523 1516.79 693.467C1531.48 748.635 1539.31 806.595 1539.33 866.383C1580.35 825.545 1626.63 789.979 1677.05 760.784V760.753C1677.05 700.871 1669.2 642.822 1654.47 587.581ZM1516.04 694.217C1474.74 735.608 1438.82 782.37 1409.42 833.365C1424.06 888.294 1431.91 945.994 1432.01 1005.51C1461.42 954.869 1497.26 908.425 1538.42 867.298L1538.42 866.594C1538.42 806.999 1530.64 749.22 1516.04 694.217ZM1408.77 834.493C1380.11 884.426 1357.69 938.398 1342.58 995.347C1357.04 1049.91 1364.79 1107.19 1364.92 1166.27C1380.17 1109.92 1402.57 1056.52 1431.1 1007.09L1431.1 1006.71C1431.1 947.171 1423.34 889.447 1408.77 834.493ZM1320.21 1167.71C1320.21 1168.37 1320.22 1169.03 1320.22 1169.69C1332.75 1216.97 1340.25 1266.3 1342.11 1317.07C1343.97 1266.3 1351.47 1216.97 1364 1169.69C1364 1169.03 1364 1168.37 1364 1167.71C1364 1108.77 1356.39 1051.6 1342.11 997.145C1327.82 1051.6 1320.21 1108.77 1320.21 1167.71ZM1320.24 1173.39C1320.7 1229.66 1328.1 1284.28 1341.63 1336.43C1341.16 1280.16 1333.76 1225.54 1320.24 1173.39ZM2185.37 1990.06C2130.48 2004.63 2072.83 2012.41 2013.37 2012.45C2013.33 1952.46 2005.42 1894.31 1990.61 1838.97C2050.2 1838.97 2107.97 1831.2 2162.98 1816.62C2177.58 1871.64 2185.37 1929.45 2185.37 1989.07L2185.37 1990.06ZM2186.28 1989.07C2186.28 1929.37 2178.49 1871.48 2163.86 1816.38C2221.1 1801.13 2275.33 1778.5 2325.47 1749.58C2340.07 1804.59 2347.85 1862.38 2347.85 1921.99C2347.85 1922.29 2347.85 1922.6 2347.85 1922.9C2297.73 1951.87 2243.51 1974.53 2186.28 1989.81L2186.28 1989.07ZM2348.77 1921.99C2348.77 1862.22 2340.95 1804.27 2326.29 1749.11C2376.73 1719.92 2423.01 1684.36 2464.05 1643.52C2478.68 1698.6 2486.48 1756.47 2486.48 1816.16V1816.54C2445.48 1857.47 2399.21 1893.11 2348.77 1922.37V1921.99ZM2487.4 1815.62C2487.35 1755.86 2479.5 1697.92 2464.8 1642.78C2505.98 1601.66 2541.85 1555.23 2571.29 1504.59C2585.92 1559.56 2593.75 1617.31 2593.8 1676.88C2564.44 1727.72 2528.6 1774.34 2487.4 1815.62ZM2594.72 1675.29C2594.52 1615.89 2586.61 1558.29 2571.94 1503.47C2600.73 1453.72 2623.33 1399.92 2638.66 1343.15C2653.12 1397.81 2660.85 1455.22 2660.9 1514.41C2645.79 1571.37 2623.38 1625.35 2594.72 1675.29ZM2661.8 1510.97C2661.46 1452.35 2653.6 1395.51 2639.14 1341.37C2653.48 1287.67 2661.33 1231.32 2661.79 1173.21C2675.8 1227.17 2683.25 1283.77 2683.25 1342.11C2683.25 1400.43 2675.8 1457.02 2661.8 1510.97ZM843.766 1990.06C788.88 2004.63 731.228 2012.41 671.765 2012.45C671.805 1952.45 679.727 1894.3 694.552 1838.97C753.861 1838.89 811.367 1831.12 866.127 1816.61C851.539 1871.64 843.766 1929.45 843.766 1989.07C843.766 1989.4 843.766 1989.73 843.766 1990.06ZM1006.25 1922.9C956.131 1951.87 901.915 1974.53 844.683 1989.81L844.682 1989.07C844.682 1929.34 852.492 1871.45 867.147 1816.34C924.329 1801.08 978.505 1778.47 1028.6 1749.57C1014.02 1804.59 1006.25 1862.38 1006.25 1921.99L1006.25 1922.9ZM1144.88 1816.54C1103.88 1857.47 1057.61 1893.11 1007.17 1922.37L1007.17 1921.99C1007.17 1862.14 1015.01 1804.13 1029.72 1748.92C1080.11 1719.72 1126.35 1684.16 1167.34 1643.33C1152.69 1698.47 1144.88 1756.4 1144.88 1816.16L1144.88 1816.54ZM1252.2 1676.88C1222.84 1727.72 1187 1774.34 1145.8 1815.62C1145.85 1755.59 1153.79 1697.4 1168.64 1642.04C1209.76 1600.85 1245.57 1554.35 1274.93 1503.66C1260.16 1558.91 1252.26 1616.98 1252.2 1676.88ZM1319.3 1514.41C1304.19 1571.37 1281.78 1625.34 1253.12 1675.28C1253.32 1614.82 1261.52 1556.24 1276.72 1500.55C1302.92 1454.76 1323.87 1405.59 1338.77 1353.85C1326.1 1405.29 1319.35 1459.07 1319.3 1514.41ZM1320.23 1510.87C1333.88 1458.24 1341.29 1403.09 1341.64 1346.27C1327.99 1398.9 1320.57 1454.05 1320.23 1510.87ZM670.848 670.849C670.888 610.856 678.799 552.704 693.603 497.37C634.163 497.374 576.531 505.116 521.658 519.641C506.818 574.997 498.888 633.18 498.849 693.209C553.739 678.659 611.39 670.889 670.848 670.849ZM497.932 693.453C497.95 633.44 505.844 575.267 520.636 519.912C463.458 535.145 409.286 557.747 359.2 586.638C344.348 642.008 336.409 700.207 336.365 760.254C386.494 731.336 440.709 708.709 497.932 693.453ZM335.449 760.784V760.753C335.449 700.768 343.317 642.621 358.077 587.287C307.678 616.489 261.434 652.066 220.448 692.917C205.648 748.244 197.749 806.393 197.731 866.383C238.752 825.545 285.025 789.979 335.449 760.784ZM196.814 867.297C196.814 867.063 196.814 866.828 196.814 866.594C196.814 806.999 204.58 749.219 219.155 694.209C178.302 735.148 142.713 781.342 113.489 831.69C98.5393 887.115 90.5184 945.383 90.413 1005.51C119.821 954.866 155.661 908.423 196.814 867.297ZM89.4954 1007.09C60.9745 1056.52 38.5706 1109.92 23.318 1166.26C23.5746 1045.61 55.7 932.456 111.723 834.752C97.221 889.633 89.4953 947.268 89.4953 1006.71L89.4954 1007.09ZM1840.45 694.158C1895.34 679.588 1952.99 671.806 2012.45 671.766C2012.41 731.231 2004.63 788.885 1990.06 843.774C1930.61 843.817 1872.97 851.589 1818.08 866.138C1832.63 811.254 1840.41 753.61 1840.45 694.158ZM1839.53 694.402C1782.3 709.683 1728.08 732.348 1677.97 761.313C1677.92 820.724 1670.15 878.329 1655.61 933.179C1705.71 904.28 1759.88 881.665 1817.06 866.41C1831.66 811.523 1839.47 753.87 1839.53 694.402ZM1677.05 761.844C1626.61 791.103 1580.33 826.75 1539.33 867.678C1539.24 927.045 1531.44 984.605 1516.88 1039.41C1557.87 998.586 1604.11 963.024 1654.49 933.827C1669.12 878.951 1676.95 821.305 1677.05 761.844ZM1538.41 868.597C1497.22 909.878 1461.37 956.502 1432.01 1007.34C1431.96 1066.26 1424.31 1123.41 1410 1177.85C1439.23 1127.63 1474.79 1081.55 1515.58 1040.7C1530.31 985.798 1538.24 928.11 1538.41 868.597ZM1431.09 1008.94C1402.43 1058.88 1380.02 1112.86 1364.91 1169.82C1364.75 1224.64 1358.01 1277.91 1345.44 1328.89C1360.49 1276.66 1381.7 1227.05 1408.25 1180.89C1422.97 1126.03 1430.9 1068.39 1431.09 1008.94ZM1363.98 1173.39C1350.46 1225.54 1343.06 1280.16 1342.59 1336.43C1356.11 1284.28 1363.51 1229.66 1363.98 1173.39ZM1991 2185.37C2005.56 2130.48 2013.33 2072.83 2013.37 2013.37C2072.82 2013.33 2130.47 2005.56 2185.36 1991.01C2185.2 2050.52 2177.27 2108.2 2162.55 2163.1C2107.8 2177.6 2050.3 2185.34 1991 2185.37ZM2163.58 2162.83C2178.25 2107.93 2186.13 2050.26 2186.28 1990.76C2243.5 1975.51 2297.72 1952.88 2347.85 1923.96C2347.68 1983.49 2339.75 2041.19 2325.02 2096.11C2274.93 2125 2220.75 2147.6 2163.58 2162.83ZM2326.14 2095.46C2340.78 2040.57 2348.64 1982.91 2348.77 1923.43C2399.19 1894.24 2445.46 1858.67 2486.48 1817.83C2486.34 1877.3 2478.45 1934.95 2463.77 1989.82C2422.78 2030.68 2376.54 2066.26 2326.14 2095.46ZM2465.06 1988.53C2479.57 1933.76 2487.34 1876.24 2487.4 1816.92C2528.55 1775.79 2564.39 1729.35 2593.8 1678.71C2593.7 1737.85 2585.94 1795.19 2571.46 1849.79C2542.1 1900.63 2506.26 1947.25 2465.06 1988.53ZM2594.72 1677.51V1677.12C2623.24 1627.7 2645.64 1574.31 2660.89 1517.98C2660.38 1637.55 2628.56 1749.73 2573.2 1846.75C2587.25 1792.69 2594.72 1735.97 2594.72 1677.51ZM693.849 496.453C709.099 439.774 731.584 386.061 760.253 336.365C700.839 336.409 643.233 344.182 588.388 358.733C559.707 408.361 537.205 462.007 521.932 518.62C576.745 504.157 634.302 496.453 693.659 496.453L693.849 496.453ZM520.91 518.891C536.125 462.313 558.549 408.69 587.137 359.066C530.018 374.34 475.905 396.969 425.875 425.876C397.264 475.394 374.803 528.912 359.537 585.386C409.619 556.588 463.768 534.065 520.91 518.891ZM358.413 586.034C373.563 529.68 395.865 476.257 424.286 426.797C373.83 456.135 327.552 491.87 286.564 532.891C258.288 582.059 236.068 635.152 220.923 691.152C261.902 650.499 308.096 615.096 358.413 586.034ZM219.626 692.442C234.499 636.924 256.312 584.245 284.078 535.391C204.603 615.765 145.309 716.135 114.419 828.279C143.623 778.549 179.049 732.914 219.626 692.442ZM2464.59 1990.3C2505.52 1949.48 2541.2 1903.41 2570.55 1853.18C2539.62 1967.37 2479.28 2069.45 2398.16 2150.81C2426.87 2100.99 2449.37 2047.13 2464.59 1990.3ZM2325.8 2096.71C2376.12 2067.65 2422.32 2032.24 2463.3 1991.59C2447.8 2048.91 2424.88 2103.18 2395.65 2153.32C2354.81 2193.85 2308.78 2229.16 2258.65 2258.16C2287.68 2208.08 2310.43 2153.91 2325.8 2096.71ZM2163.3 2163.86C2220.44 2148.68 2274.59 2126.16 2324.68 2097.36C2309.18 2154.67 2286.28 2208.94 2257.06 2259.08C2207.09 2287.8 2153.07 2310.27 2096.06 2325.42C2125.13 2275.31 2147.91 2221.09 2163.3 2163.86ZM1990.76 2186.29C2050.04 2186.27 2107.53 2178.57 2162.28 2164.13C2146.83 2221.4 2123.97 2275.64 2094.81 2325.75C2040.27 2340.13 1983.01 2347.81 1923.96 2347.85C1952.88 2297.72 1975.5 2243.51 1990.76 2186.29ZM1339.4 1348.28C1313.19 1394.68 1292.35 1444.51 1277.72 1496.94C1303.93 1450.54 1324.77 1400.71 1339.4 1348.28ZM1275.87 1500.19C1289.68 1449.65 1309.24 1401.48 1333.82 1356.44C1305.91 1402.07 1272.71 1444.1 1235.07 1481.69C1206.66 1530.94 1184.34 1584.14 1169.12 1640.26C1210.52 1598.6 1246.49 1551.52 1275.87 1500.19ZM1167.81 1641.56C1182.77 1585.9 1204.7 1533.09 1232.62 1484.13C1191.83 1524.45 1145.91 1559.57 1095.91 1588.44C1067.49 1637.89 1045.19 1691.31 1030.06 1747.66C1080.53 1718.33 1126.82 1682.59 1167.81 1641.56ZM1028.93 1748.31C1043.96 1692.07 1066.1 1638.74 1094.34 1589.34C1044.38 1618.01 990.378 1640.43 933.406 1655.55C904.898 1705.16 882.554 1758.77 867.42 1815.31C924.636 1800 978.835 1777.31 1028.93 1748.31ZM866.398 1815.59C881.475 1759.07 903.743 1705.49 932.16 1655.88C877.616 1670.25 820.356 1677.92 761.312 1677.97C732.597 1727.65 710.074 1781.37 694.799 1838.05C754.121 1837.95 811.637 1830.15 866.398 1815.59ZM1817.81 867.159C1872.7 852.563 1930.35 844.756 1989.81 844.691C1974.53 901.92 1951.87 956.134 1922.9 1006.25C1863.5 1006.3 1805.89 1014.06 1751.05 1028.6C1779.94 978.507 1802.56 924.335 1817.81 867.159ZM1344.02 1337.34C1371.09 1289.7 1392.48 1238.41 1407.29 1184.4C1380.23 1232.05 1358.83 1283.33 1344.02 1337.34ZM1350.4 1327.77C1375.42 1281.91 1395.25 1232.8 1409.1 1181.24C1438.34 1130.42 1474.05 1083.79 1515.1 1042.48C1499.52 1099.94 1476.49 1154.33 1447.11 1204.56C1410.3 1241.63 1377.8 1282.97 1350.4 1327.77ZM1449.65 1202.02C1478.5 1152.11 1501.1 1098.14 1516.4 1041.18C1557.4 1000.15 1603.69 964.419 1654.16 935.082C1638.8 992.276 1616.06 1046.45 1587.03 1096.52C1536.73 1125.71 1490.57 1161.24 1449.65 1202.02ZM1588.62 1095.6C1617.46 1045.58 1640.04 991.505 1655.28 934.43C1705.38 905.439 1759.58 882.745 1816.79 867.431C1801.48 924.642 1778.79 978.836 1749.8 1028.93C1692.72 1044.18 1638.63 1066.75 1588.62 1095.6ZM932.802 1654.77C878.233 1669.22 820.935 1676.96 761.843 1677.05C791.455 1626 827.609 1579.22 869.159 1537.85C927.793 1537.76 984.664 1530.15 1038.86 1515.93C997.787 1557.27 962.06 1603.92 932.802 1654.77ZM1095.24 1587.77C1045.23 1616.62 991.139 1639.2 934.051 1654.43C963.447 1603.51 999.347 1556.81 1040.62 1515.47C1097.03 1500.51 1150.53 1478.39 1200.08 1450.13C1159.52 1491.17 1124.21 1537.41 1095.24 1587.77ZM1234.34 1481.13C1193.39 1522 1147.19 1557.61 1096.83 1586.85C1126.17 1536.13 1161.96 1489.61 1203.08 1448.41C1247.86 1422.57 1289.37 1391.71 1326.86 1356.6C1291.45 1394.28 1260.35 1436.05 1234.34 1481.13ZM1236.88 1478.58C1276.63 1438.47 1311.36 1393.36 1340.02 1344.29C1300.26 1384.4 1265.54 1429.5 1236.88 1478.58ZM760.783 335.448C790.33 284.418 826.402 237.639 867.859 196.252C808.6 196.27 751.137 203.978 696.416 218.432C654.844 259.79 618.668 306.567 589.036 357.613C643.846 343.152 701.401 335.448 760.754 335.448H760.783ZM587.785 357.945C617.276 306.981 653.275 260.255 694.646 218.902C637.909 234.056 584.135 256.466 534.381 285.078C492.735 326.433 456.489 373.22 426.796 424.287C476.768 395.572 530.786 373.102 587.785 357.945ZM425.204 425.205C375.133 454.161 329.149 489.398 288.33 529.839C346.85 429.31 430.768 345.389 531.293 286.865C490.242 328.048 454.506 374.534 425.204 425.205ZM1750.4 1029.72C1805.27 1015.1 1862.91 1007.26 1922.37 1007.17C1893.11 1057.61 1857.46 1103.89 1816.52 1144.9L1816.14 1144.9C1757.11 1144.9 1699.86 1152.52 1645.32 1166.83C1685.94 1125.96 1721.32 1079.9 1750.4 1029.72ZM1749.14 1030.05C1691.95 1045.42 1637.77 1068.15 1587.7 1097.19C1558.97 1146.69 1524.09 1192.19 1484.12 1232.63C1533.66 1204.38 1587.16 1182.26 1643.57 1167.29C1684.37 1126.42 1719.93 1080.31 1749.14 1030.05ZM1586.09 1098.12C1535.4 1127.7 1488.94 1163.75 1447.84 1205.13C1422.25 1248.86 1391.84 1289.45 1357.36 1326.15C1394.84 1291.05 1436.34 1260.19 1481.11 1234.36C1521.64 1193.76 1556.99 1147.99 1586.09 1098.12ZM1445.21 1207.79C1407.32 1246.37 1374.06 1289.51 1346.33 1336.31C1384.22 1297.73 1417.48 1254.6 1445.21 1207.79ZM1817.82 2486.5C1858.66 2445.47 1894.23 2399.2 1923.43 2348.77H1923.46C1982.45 2348.77 2039.65 2341.16 2094.16 2326.87C2064.71 2377.25 2028.87 2423.44 1987.77 2464.33C1933.51 2478.66 1876.55 2486.36 1817.82 2486.5ZM1989.54 2463.86C2030.45 2422.97 2066.1 2376.84 2095.41 2326.54C2152.29 2311.51 2206.22 2289.2 2256.13 2260.67C2226.67 2310.88 2190.86 2356.93 2149.81 2397.69C2100.05 2426.3 2046.28 2448.71 1989.54 2463.86ZM2152.9 2395.9C2193.36 2355.31 2228.66 2309.57 2257.73 2259.75C2307.47 2231.13 2353.19 2196.33 2393.85 2156.38C2335.43 2255.38 2252.28 2338.05 2152.9 2395.9ZM1040.14 1514.65C985.85 1529.02 928.856 1536.76 870.083 1536.93C910.996 1496.36 957.112 1461.02 1007.34 1432.01C1064.63 1431.96 1120.23 1424.73 1173.31 1411.18C1124.62 1440.03 1079.9 1474.85 1040.14 1514.65ZM1202.52 1447.68C1152.67 1476.43 1098.78 1498.95 1041.91 1514.18C1082.08 1474.16 1127.29 1439.2 1176.52 1410.35C1224.31 1397.89 1270.04 1380.29 1313.06 1358.19C1273.08 1384.08 1236.03 1414.11 1202.52 1447.68ZM1337.86 1344.78C1298.27 1383.68 1253.87 1417.7 1205.63 1445.87C1241.02 1410.8 1280.3 1379.64 1322.76 1353.1C1327.83 1350.39 1332.87 1347.61 1337.86 1344.78ZM868.779 195.335C909.538 154.801 955.475 119.467 1005.51 90.4118C946.381 90.5152 889.048 98.2741 834.45 112.75C784.435 141.632 738.499 176.788 697.716 217.142C752.117 202.911 809.21 195.335 868.073 195.335C868.308 195.335 868.544 195.335 868.779 195.335ZM695.944 217.608C639.701 232.486 586.352 254.481 536.919 282.572C617.701 203.198 718.506 144.137 831.061 113.658C781.654 142.524 736.267 177.522 695.944 217.608ZM1644.04 1168.11C1698.8 1153.61 1756.3 1145.86 1815.6 1145.82C1775.01 1186.32 1729.26 1221.65 1679.41 1250.73C1678.77 1250.73 1678.14 1250.73 1677.51 1250.73C1619.98 1250.73 1564.15 1257.97 1510.87 1271.58C1559.56 1242.73 1604.28 1207.91 1644.04 1168.11ZM1642.27 1168.59C1585.4 1183.82 1531.52 1206.34 1481.67 1235.09C1448.16 1268.64 1411.12 1298.67 1371.15 1324.56C1414.17 1302.46 1459.87 1284.87 1507.66 1272.41C1556.88 1243.55 1602.1 1208.6 1642.27 1168.59ZM1478.56 1236.9C1430.34 1265.06 1385.96 1299.07 1346.38 1337.95C1351.37 1335.12 1356.39 1332.35 1361.46 1329.64C1403.91 1303.11 1443.18 1271.96 1478.56 1236.9ZM1681.24 2592.32C1730.89 2563.2 1776.47 2527.88 1816.9 2487.42C1875.48 2487.35 1932.31 2479.78 1986.47 2465.62C1945.68 2505.97 1899.74 2541.13 1849.72 2570C1795.92 2584.27 1739.46 2592 1681.24 2592.32ZM1853.11 2569.1C1902.52 2540.23 1947.91 2505.24 1988.24 2465.15C2044.48 2450.28 2097.84 2428.28 2147.27 2400.19C2066.48 2479.57 1965.67 2538.63 1853.11 2569.1ZM1176.16 1409.49C1122.73 1423.41 1066.69 1430.9 1008.94 1431.09C1058.87 1402.44 1112.85 1380.02 1169.79 1364.92C1216.53 1364.88 1262.15 1360.06 1306.19 1350.93C1260.49 1365.87 1216.95 1385.59 1176.16 1409.49ZM1322.3 1352.31C1277.49 1376.26 1229.64 1395.28 1179.49 1408.62C1222.05 1383.96 1267.58 1363.85 1315.4 1348.95C1322.25 1347.43 1329.06 1345.8 1335.83 1344.07C1331.28 1346.77 1326.77 1349.51 1322.3 1352.31ZM1348.43 1338.64C1352.96 1335.96 1357.46 1333.22 1361.92 1330.43C1406.71 1306.49 1454.54 1287.48 1504.69 1274.14C1462.13 1298.78 1416.62 1318.88 1368.81 1333.78C1361.98 1335.3 1355.18 1336.92 1348.43 1338.64ZM1345.11 1340.6C1345.26 1340.51 1345.42 1340.42 1345.57 1340.33C1348.49 1339.57 1351.41 1338.83 1354.34 1338.11C1351.18 1339.01 1348.01 1339.9 1344.84 1340.76L1345.11 1340.6ZM1007.09 89.4942L1006.71 89.4941C948.257 89.4941 891.55 96.9649 837.492 111.004C934.501 55.659 1046.67 23.8426 1166.23 23.3252C1109.9 38.5774 1056.51 60.9784 1007.09 89.4942ZM1677.51 1251.65L1677.84 1251.65C1628.78 1280.09 1575.78 1302.49 1519.87 1317.83C1518.26 1317.81 1516.64 1317.81 1515.02 1317.81C1468.08 1317.81 1422.25 1322.63 1378.02 1331.8C1423.71 1316.86 1467.23 1297.15 1508.01 1273.26C1562.15 1259.16 1618.95 1251.65 1677.51 1251.65ZM1523.55 2659.36C1578.8 2643.88 1631.16 2621.52 1679.67 2593.25C1737.34 2593.06 1793.3 2585.61 1846.68 2571.75C1751.19 2626.22 1641.01 2657.89 1523.55 2659.36ZM1315.16 1348.06C1269.47 1358.21 1222.02 1363.7 1173.34 1363.99C1224.62 1350.69 1278.29 1343.31 1333.58 1342.62C1327.4 1344.35 1321.26 1346.16 1315.16 1348.06ZM1337.96 1342.58C1335.27 1343.28 1332.58 1343.96 1329.87 1344.62C1332.29 1343.93 1334.71 1343.25 1337.14 1342.58L1337.96 1342.58Z" fill="#171717"/>
</svg>
