<svg width="1340" height="1080" viewBox="0 0 1340 1080" fill="none" xmlns="http://www.w3.org/2000/svg">
<path fill-rule="evenodd" clip-rule="evenodd" d="M643.634 -593.562C687.059 -628.501 735.583 -658.554 788.755 -682.531C841.927 -706.508 896.575 -722.978 951.51 -732.393C898.457 -708.091 850.072 -677.727 806.809 -642.494C751.761 -633.395 696.971 -617.235 643.634 -593.562ZM788.378 -683.366C842.721 -707.871 898.604 -724.546 954.759 -733.871L955.199 -734.07C1066.46 -784.238 1184.17 -801.589 1297.46 -790.235C1415.02 -809.722 1533.76 -797 1642.08 -756.465C1760.31 -744.79 1873.76 -701.858 1970.09 -632.341C2078.03 -591.425 2175.47 -522.843 2250.88 -430.965C2343.85 -364.394 2421.03 -273.154 2471.42 -161.413C2471.69 -160.817 2471.96 -160.221 2472.22 -159.625C2508.14 -115.459 2538.98 -65.9646 2563.49 -11.6214C2587.99 42.7185 2604.66 98.5981 2613.99 154.751L2614.19 155.206C2664.37 266.47 2681.72 384.189 2670.36 497.492C2690.11 616.71 2676.75 737.152 2634.84 846.697C2622.6 963.495 2579.84 1075.49 2511.1 1170.75C2469.76 1278.77 2400.67 1376.18 2308.23 1451.38C2242.66 1542.5 2153.34 1618.37 2044.21 1668.56C1998.93 1706.04 1947.92 1738.15 1891.74 1763.49C1835.56 1788.82 1777.73 1805.79 1719.65 1814.91C1609.79 1863.47 1493.8 1880.19 1382.1 1869C1264.54 1888.5 1145.79 1875.78 1037.46 1835.25C920.559 1823.71 808.319 1781.61 712.68 1713.46C602.832 1672.35 503.711 1602.63 427.44 1508.89C335.005 1442.39 258.266 1351.46 208.094 1240.19L207.889 1239.74C171.978 1195.57 141.137 1146.08 116.633 1091.74C92.1284 1037.4 75.4533 981.515 66.1287 925.359C65.8585 924.764 65.5891 924.169 65.3203 923.573C14.9336 811.834 -2.34924 693.584 9.30474 579.837C-9.63041 462.49 3.48416 344.049 44.2765 236.067C55.9545 117.845 98.888 4.39497 168.406 -91.939C209.738 -199.955 278.819 -297.375 371.251 -372.578C437.747 -465.006 528.68 -541.739 639.936 -591.907L640.375 -592.105C684.541 -628.019 734.035 -658.862 788.378 -683.366ZM1385.56 1868.42C1495 1878.82 1608.46 1862.4 1716.13 1815.46C1659.41 1824.06 1602.48 1825.2 1546.65 1819.36C1494 1842.9 1439.92 1859.11 1385.56 1868.42ZM1722.91 1813.46C1779.76 1804.23 1836.35 1787.46 1891.36 1762.65C1946.38 1737.84 1996.41 1706.53 2040.97 1670.04C2040.51 1670.25 2040.04 1670.46 2039.57 1670.67C1985.07 1695.25 1929.02 1711.95 1872.7 1721.26C1828.44 1757.31 1778.81 1788.26 1724.31 1812.83C1723.84 1813.04 1723.37 1813.26 1722.91 1813.46ZM1870.88 1721.56C1826.99 1757.12 1777.85 1787.68 1723.93 1812C1722.42 1812.68 1720.91 1813.36 1719.39 1814.03C1662.16 1823.01 1604.68 1824.37 1548.32 1818.61L1548.62 1818.48C1603.16 1793.88 1652.82 1762.9 1697.11 1726.82C1754.37 1732.57 1812.76 1731 1870.88 1721.56ZM1874.13 1720.09C1929.84 1710.74 1985.28 1694.15 2039.2 1669.84C2040.71 1669.15 2042.22 1668.47 2043.72 1667.78C2088.35 1630.83 2127.41 1588.65 2160.42 1542.6L2160.12 1542.73C2105.57 1567.33 2049.48 1584.03 1993.11 1593.34C1959.52 1640.06 1919.68 1682.78 1874.13 1720.09ZM1991.83 1593.55C1958.09 1640.34 1918.07 1683.1 1872.31 1720.39C1814.06 1730 1755.52 1731.69 1698.11 1726C1743.84 1688.59 1783.81 1645.74 1817.51 1598.86C1874.95 1604.65 1933.53 1603.06 1991.83 1593.55ZM1993.87 1592.28C2049.85 1582.96 2105.56 1566.33 2159.74 1541.9C2160.32 1541.63 2160.9 1541.37 2161.48 1541.11C2194.97 1494.11 2222.15 1443.1 2242.5 1389.49C2188 1414.01 2131.95 1430.67 2075.64 1439.93C2055.1 1493.82 2027.66 1545.09 1993.87 1592.28ZM2074.59 1440.1C2054 1494.02 2026.48 1545.3 1992.59 1592.5C1934.25 1602.09 1875.62 1603.75 1818.12 1598C1851.99 1550.72 1879.47 1499.36 1900.02 1445.36C1957.54 1451.19 2016.21 1449.61 2074.59 1440.1ZM2076.01 1438.94C2132.24 1429.64 2188.2 1412.97 2242.62 1388.43L2242.96 1388.28C2263.42 1334.07 2276.9 1277.22 2282.84 1219.2C2228.42 1243.64 2172.46 1260.23 2116.23 1269.46C2110.21 1327.63 2096.62 1384.61 2076.01 1438.94ZM2115.3 1269.62C2109.25 1327.8 2095.62 1384.79 2074.97 1439.11C2016.57 1448.67 1957.9 1450.28 1900.36 1444.47C1920.97 1390.09 1934.56 1333.05 1940.57 1274.82C1998.14 1280.68 2056.86 1279.12 2115.3 1269.62ZM2116.33 1268.52C2172.56 1259.27 2228.52 1242.64 2282.95 1218.15C2288.75 1160.56 2287.12 1101.82 2277.53 1043.37C2223.19 1067.8 2167.32 1084.41 2111.18 1093.67C2120.68 1152.15 2122.22 1210.91 2116.33 1268.52ZM2110.28 1093.82C2119.78 1152.31 2121.3 1211.07 2115.39 1268.67C2056.95 1278.2 1998.23 1279.77 1940.66 1273.91C1946.52 1216.34 1944.97 1157.62 1935.46 1099.18C1993.07 1104.99 2051.81 1103.39 2110.28 1093.82ZM2111.03 1092.77C2167.17 1083.5 2223.04 1066.89 2277.37 1042.43C2268.09 986.406 2251.49 930.649 2227.08 876.424C2172.86 900.83 2117.11 917.445 2061.09 926.745C2085.37 980.987 2101.85 1036.75 2111.03 1092.77ZM2060.16 926.899C2084.45 981.137 2100.95 1036.9 2110.13 1092.92C2051.66 1102.48 1992.91 1104.08 1935.31 1098.24C1926.13 1042.29 1909.65 986.596 1885.41 932.418C1942.99 938.174 2001.72 936.515 2060.16 926.899ZM2060.7 925.88C2116.73 916.6 2172.48 899.996 2226.7 875.589C2202 820.912 2170.88 771.155 2134.62 726.811C2080.52 751.12 2024.91 767.677 1969.02 776.954C2004.94 821.125 2035.79 870.626 2060.3 924.977C2060.43 925.278 2060.57 925.579 2060.7 925.88ZM1967.98 777.126C2003.99 821.34 2034.91 870.91 2059.46 925.354C2059.56 925.58 2059.67 925.807 2059.77 926.034C2001.31 935.63 1942.57 937.256 1884.98 931.453L1884.6 930.621C1860.1 876.281 1829.26 826.79 1793.35 782.626C1850.89 788.379 1909.58 786.725 1967.98 777.126ZM1968.35 776.135C2024.26 766.9 2079.9 750.372 2134.02 726.076C2096.79 680.679 2054.18 640.972 2007.58 607.482C1953.73 631.709 1898.38 648.254 1842.75 657.582C1889.05 691.121 1931.38 730.813 1968.35 776.135ZM1841.48 657.794C1887.86 691.299 1930.27 730.977 1967.31 776.307C1908.85 785.867 1850.12 787.458 1792.53 781.623C1755.72 736.529 1713.61 697.014 1667.56 663.59C1724.89 669.185 1783.33 667.43 1841.48 657.794ZM1841.71 656.827C1897.39 647.567 1952.81 631.069 2006.71 606.864C1958.74 572.5 1906.55 544.716 1851.67 524.086C1798.18 548.104 1743.2 564.544 1687.96 573.863C1742.39 594.66 1794.14 622.502 1841.71 656.827ZM1686.17 574.163C1740.78 594.883 1792.7 622.698 1840.43 657.038C1782.13 666.617 1723.54 668.266 1666.09 662.523C1618.98 628.527 1567.79 600.888 1513.94 580.151C1570.72 585.537 1628.59 583.714 1686.17 574.163ZM1686.26 573.218C1741.66 564.007 1796.8 547.631 1850.45 523.629C1796.47 503.458 1739.9 490.202 1682.19 484.405C1629.95 507.904 1576.29 524.172 1522.33 533.634C1578.57 539.921 1633.66 553.284 1686.26 573.218ZM1519.06 534.198C1575.8 540.268 1631.39 553.547 1684.45 573.516C1626.35 583.012 1567.96 584.634 1510.71 578.915C1466.36 562.096 1420.24 549.949 1373.15 542.777C1421.46 545.243 1470.37 542.488 1519.06 534.198ZM1519.04 533.273C1573.47 523.995 1627.63 507.791 1680.36 484.223C1623.06 478.627 1564.64 480.382 1506.52 490.023C1463.89 509.198 1420.33 523.559 1376.43 533.337C1424.23 528.176 1472.03 528.253 1519.04 533.273ZM1367.22 535.32C1416.94 529.242 1466.71 528.86 1515.65 533.842C1464.44 542.297 1413.01 544.634 1362.31 541.217C1357.08 540.507 1351.84 539.859 1346.59 539.272C1353.47 538.066 1360.35 536.749 1367.22 535.32ZM1367.07 534.414C1412.9 524.881 1458.41 510.375 1502.91 490.632C1450.69 499.589 1398.73 514.923 1348.05 537.02C1354.39 536.058 1360.73 535.19 1367.07 534.414ZM1344.79 538.45C1347.27 538.06 1349.76 537.684 1352.25 537.323C1349.51 537.828 1346.77 538.315 1344.03 538.785C1344.28 538.673 1344.54 538.562 1344.79 538.45ZM1344.39 537.584C1344.06 537.637 1343.72 537.69 1343.39 537.743C1349.55 532.66 1355.61 527.478 1361.56 522.2C1400.11 493.369 1442.38 468.272 1488.08 447.663C1488.54 447.454 1489.01 447.246 1489.47 447.038C1446.13 482.528 1397.62 513.115 1344.39 537.584ZM1332.88 539.5C1326.01 540.704 1319.14 542.019 1312.29 543.445C1262.58 549.52 1212.83 549.904 1163.91 544.928C1215.11 536.478 1266.52 534.144 1317.2 537.561C1322.42 538.268 1327.64 538.915 1332.88 539.5ZM1327.26 541.442C1330.23 540.894 1333.2 540.367 1336.17 539.86C1336.45 539.89 1336.74 539.92 1337.02 539.95C1333.76 540.472 1330.51 540.969 1327.26 541.442ZM1303.08 545.427C1255.3 550.586 1207.52 550.511 1160.52 545.496C1105.37 554.892 1050.5 571.398 997.122 595.469L996.823 595.604C1053.23 601.365 1110.75 599.999 1168.03 590.997C1169.5 590.323 1170.97 589.654 1172.44 588.99C1215.24 569.69 1258.99 555.247 1303.08 545.427ZM1171.43 590.454C1171.89 590.244 1172.35 590.035 1172.82 589.825C1218.52 569.217 1265.31 554.153 1312.44 544.35C1320.34 543.384 1328.23 542.275 1336.12 541.022L1335.91 541.194L1335.34 541.667C1281.76 565.362 1226.71 581.472 1171.43 590.454ZM1165.01 592.391C1108.17 601.045 1051.12 602.201 995.167 596.354C941.419 620.794 892.446 651.454 848.718 687.097C905.897 692.907 964.211 691.395 1022.26 682.031C1064.96 647.006 1112.69 616.74 1165.01 592.391ZM1024.06 681.737C1067.19 646.541 1115.41 616.194 1168.3 591.883C1218.43 583.995 1268.37 570.265 1317.23 550.353C1271.71 572.922 1229.82 600.04 1191.87 630.903L1191.43 631.101C1136.77 655.749 1080.55 672.464 1024.06 681.737ZM1020.86 683.184C962.933 692.389 904.756 693.791 847.715 687.916C802.007 725.321 762.054 768.18 728.392 815.072C785.816 820.888 844.383 819.32 902.671 809.829C936.034 763.183 975.604 720.505 1020.86 683.184ZM903.949 809.62C937.452 762.913 977.195 720.205 1022.65 682.896C1078.82 673.813 1134.74 657.384 1189.14 633.13C1144.05 670.196 1104.58 712.574 1071.24 758.896L1070.89 759.055C1016.37 783.64 960.292 800.334 903.949 809.62ZM901.922 810.879C843.672 820.282 785.153 821.788 727.777 815.931C693.945 863.218 666.502 914.59 645.996 968.594C703.54 974.381 762.226 972.752 820.627 963.168C841.021 909.32 868.3 858.079 901.922 810.879ZM821.673 962.995C842.125 909.121 869.481 857.866 903.195 810.673C959.544 801.465 1015.63 784.862 1070.18 760.38C1036.51 807.435 1009.15 858.53 988.66 912.237L988.017 912.528C933.687 937.027 877.816 953.689 821.673 962.995ZM820.253 964.158C761.862 973.693 703.189 975.288 645.66 969.481C624.946 1024.26 611.368 1081.74 605.496 1140.41C663.076 1146.22 721.801 1144.61 780.242 1135.04C786.079 1076.4 799.606 1018.93 820.253 964.158ZM781.179 1134.88C787.039 1076.23 800.603 1018.76 821.298 963.986C877.627 954.696 933.686 938.012 988.198 913.452C967.419 968.222 953.765 1025.69 947.807 1084.36L947.781 1084.37C893.368 1108.91 837.409 1125.58 781.179 1134.88ZM780.149 1135.98C721.708 1145.54 662.984 1147.14 605.406 1141.32C599.762 1198.5 601.44 1256.8 610.968 1314.81C668.565 1320.59 727.305 1318.93 785.756 1309.31C776.237 1251.35 774.544 1193.11 780.149 1135.98ZM786.661 1309.16C777.142 1251.2 775.459 1192.95 781.085 1135.83C837.316 1126.55 893.279 1109.91 947.701 1085.41C941.995 1142.5 943.577 1200.71 952.974 1258.65L952.801 1258.72C898.537 1283.19 842.735 1299.85 786.661 1309.16ZM785.906 1310.21C727.457 1319.84 668.72 1321.5 611.123 1315.75C620.428 1371.9 637.091 1427.78 661.594 1482.11L661.97 1482.95C719.565 1488.75 778.305 1487.12 836.759 1477.53C836.657 1477.3 836.554 1477.07 836.452 1476.85C811.91 1422.42 795.222 1366.45 785.906 1310.21ZM837.696 1477.37C837.56 1477.07 837.424 1476.77 837.288 1476.47C812.78 1422.12 796.114 1366.23 786.81 1310.06C842.944 1300.74 898.804 1284.07 953.126 1259.58C962.377 1316.11 979.071 1372.37 1003.7 1427.08C949.473 1451.49 893.72 1468.09 837.696 1477.37ZM837.151 1478.39C778.716 1488.01 719.992 1489.67 662.408 1483.91C687.033 1538.1 717.982 1587.45 753.985 1631.45C811.522 1637.2 870.197 1635.54 928.584 1625.92C892.639 1581.9 861.741 1532.57 837.151 1478.39ZM929.627 1625.74C893.639 1581.74 862.704 1532.42 838.088 1478.24C894.107 1468.94 949.854 1452.32 1004.07 1427.92C1028.55 1482.11 1059.34 1531.47 1095.17 1575.53C1041.09 1599.87 985.495 1616.45 929.627 1625.74ZM929.253 1626.74C870.924 1636.39 812.302 1638.12 754.807 1632.46C792.492 1678.33 835.68 1718.39 882.93 1752.08C940.289 1757.73 998.771 1756 1056.96 1746.38C1009.86 1712.65 966.817 1672.59 929.253 1626.74ZM1058.24 1746.17C1011.06 1712.47 967.928 1672.42 930.297 1626.56C986.144 1617.23 1041.72 1600.62 1095.76 1576.26C1133.19 1622.15 1176.1 1662.27 1223.07 1696.08C1169.23 1720.31 1113.87 1736.85 1058.24 1746.17ZM1058.02 1747.13C999.985 1756.81 941.657 1758.64 884.431 1753.15C931.925 1786.82 983.492 1814.07 1037.67 1834.35C1094.79 1839.98 1153.03 1838.3 1210.98 1828.79C1156.88 1808.34 1105.41 1780.93 1058.02 1747.13ZM1212.79 1828.49C1158.5 1808.11 1106.85 1780.74 1059.3 1746.92C1114.86 1737.54 1170.13 1720.96 1223.9 1696.71L1223.93 1696.7C1271.28 1730.67 1322.73 1758.23 1376.83 1778.84C1323.23 1802.85 1268.14 1819.25 1212.79 1828.49ZM1214.5 1829.13C1269.69 1819.78 1324.61 1803.32 1378.04 1779.3C1431.53 1799.56 1487.59 1813.03 1544.83 1819.17C1491.63 1842.81 1436.98 1858.96 1382.07 1868.08C1324.6 1862.31 1268.27 1849.15 1214.5 1829.13ZM1212.7 1829.44C1265.94 1849.4 1321.7 1862.65 1378.61 1868.65C1263.47 1887.14 1147.29 1874.74 1041.02 1835.6C1097.63 1840.88 1155.31 1839 1212.7 1829.44ZM808.631 -642.792C852.371 -678.239 901.324 -708.713 955.027 -732.986C1013.15 -742.627 1071.57 -744.382 1128.88 -738.785C1075.13 -714.34 1026.16 -683.684 982.418 -648.05C925.151 -653.809 866.754 -652.233 808.631 -642.792ZM640.862 -591.319C694.607 -615.498 749.856 -632.012 805.38 -641.326C759.824 -604.015 719.982 -561.291 686.384 -514.559C630.721 -505.369 575.321 -488.96 521.419 -464.863C555.161 -511.516 595.153 -554.137 640.862 -591.319ZM807.199 -641.629C761.432 -604.328 721.409 -561.569 687.665 -514.77C745.973 -524.279 804.56 -525.872 862.008 -520.084C895.703 -566.971 935.683 -609.826 981.413 -647.229C923.998 -652.923 865.455 -651.235 807.199 -641.629ZM520.349 -463.378C574.339 -487.664 629.847 -504.216 685.627 -513.504C651.832 -466.305 624.396 -415.038 603.863 -361.144C548.014 -351.954 492.428 -335.497 438.352 -311.302C458.969 -365.111 486.483 -416.283 520.349 -463.378ZM686.907 -513.716C653.017 -466.521 625.502 -415.237 604.909 -361.315C663.297 -370.827 721.964 -372.401 779.486 -366.575C800.041 -420.576 827.525 -471.942 861.391 -519.224C803.892 -524.972 745.256 -523.315 686.907 -513.716ZM437.889 -310.09C491.986 -334.381 547.602 -350.91 603.486 -360.152C582.713 -305.372 569.068 -247.89 563.122 -189.217C507.155 -179.963 451.457 -163.41 397.28 -139.084C403.289 -197.792 417.017 -255.3 437.889 -310.09ZM604.531 -360.324C583.71 -305.546 570.028 -248.056 564.059 -189.371C622.502 -198.949 681.23 -200.57 738.814 -194.776C744.753 -253.44 758.389 -310.913 779.149 -365.688C721.612 -371.494 662.93 -369.886 604.531 -360.324ZM397.173 -138.031C451.349 -162.407 507.053 -178.995 563.027 -188.272C557.318 -131.136 558.91 -72.8789 568.33 -14.8945C512.316 -5.64967 456.569 10.9061 402.346 35.2486C392.969 -22.7069 391.42 -80.9319 397.173 -138.031ZM563.964 -188.426C558.234 -131.291 559.814 -73.0305 569.234 -15.0432C627.699 -24.61 686.447 -26.2156 744.05 -20.4007C734.614 -78.413 733.014 -136.699 738.723 -193.863C681.137 -199.658 622.407 -198.026 563.964 -188.426ZM402.499 36.1851C456.717 11.8213 512.464 -4.74465 568.477 -13.9896C577.733 42.494 594.42 98.7121 619.027 153.376C563.006 162.676 507.258 179.29 453.038 203.696C428.412 148.986 411.729 92.7176 402.499 36.1851ZM569.382 -14.1383C578.638 42.3449 595.335 98.5621 619.962 153.221C678.398 143.606 737.122 141.946 794.707 147.702C770.134 93.1022 753.461 36.9524 744.203 -19.4636C686.601 -25.2999 627.85 -23.7055 569.382 -14.1383ZM453.415 204.532C507.638 180.125 563.392 163.52 619.416 154.24C643.895 208.419 674.675 257.772 710.501 301.824C654.489 311.121 598.749 327.731 544.538 352.129C508.691 308.083 477.896 258.724 453.415 204.532ZM620.353 154.086C644.857 208.27 675.674 257.618 711.543 301.652C769.939 292.054 828.622 290.4 886.167 296.152C850.369 252.127 819.609 202.806 795.142 148.667C737.547 142.864 678.807 144.49 620.353 154.086ZM545.137 352.865C599.371 328.48 655.136 311.898 711.168 302.643C748.578 348.494 791.461 388.582 838.394 422.366C782.421 431.663 726.719 448.261 672.543 472.638C625.538 438.858 582.592 398.753 545.137 352.865ZM712.211 302.472C749.688 348.331 792.652 388.406 839.672 422.155C897.972 412.589 956.556 410.941 1014.01 416.673C967.158 382.937 924.344 342.919 886.985 297.156C829.399 291.321 770.664 292.912 712.211 302.472ZM673.404 473.256C727.645 448.901 783.412 432.349 839.446 423.122C886.578 456.912 937.774 484.358 991.595 504.917C935.994 514.293 880.673 530.881 826.862 555.146L826.515 555.302C772.343 534.749 720.818 507.215 673.404 473.256ZM840.728 422.912C888.017 456.717 939.387 484.135 993.386 504.618C1050.96 495.07 1108.82 493.249 1165.6 498.638C1112.54 478.204 1062.04 451.065 1015.5 417.746C957.919 411.862 899.184 413.403 840.728 422.912ZM827.728 555.761C881.811 531.425 937.416 514.85 993.293 505.563C1045.89 525.493 1100.98 538.853 1157.22 545.136C1103.06 554.632 1049.18 570.987 996.745 594.633C996.168 594.894 995.591 595.155 995.014 595.417C937.617 589.398 881.382 576 827.728 555.761ZM995.099 505.265C1048.17 525.231 1103.76 538.506 1160.49 544.571C1209.17 536.288 1258.07 533.535 1306.37 536C1259.29 528.83 1213.18 516.687 1168.84 499.874C1111.58 494.153 1053.2 495.772 995.099 505.265ZM1682.04 483.468C1625.25 477.785 1567.36 479.313 1509.72 488.57C1563.92 463.855 1613.25 432.82 1657.25 396.734C1715.3 387.368 1773.62 385.857 1830.81 391.669C1786.55 427.749 1736.91 458.723 1682.39 483.308L1682.04 483.468ZM1506.69 488.939C1561.35 464.292 1611.1 433.224 1655.44 397.028C1600.52 406.044 1545.84 422.098 1492.61 445.639C1453.51 477.987 1410.16 506.33 1362.89 529.767C1409.94 510.593 1457.99 497.151 1506.25 489.138L1506.69 488.939ZM1831.81 390.85C1774.77 384.973 1716.58 386.375 1658.65 395.581C1703.9 358.264 1743.47 315.59 1776.83 268.951C1835.12 259.457 1893.69 257.888 1951.12 263.705C1917.46 310.593 1877.51 353.448 1831.81 390.85ZM1656.86 395.868C1702.31 358.564 1742.05 315.861 1775.55 269.16C1719.88 278.336 1664.48 294.741 1610.58 318.844C1577.92 364.649 1539.28 406.644 1495.17 443.515C1548.05 420.421 1602.34 404.685 1656.86 395.868ZM1951.74 262.846C1894.36 256.989 1835.83 258.495 1777.58 267.9C1811.2 220.704 1838.48 169.467 1858.87 115.622C1917.28 106.035 1975.97 104.405 2033.52 110.192C2013.01 164.193 1985.57 215.562 1951.74 262.846ZM1776.3 268.107C1810.02 220.916 1837.37 169.665 1857.83 115.794C1801.93 125.061 1746.3 141.621 1692.19 165.947C1671.96 219.463 1644.93 270.407 1611.63 317.374C1665.45 293.454 1720.75 277.187 1776.3 268.107ZM2033.85 109.304C1976.32 103.498 1917.64 105.094 1859.25 114.632C1879.72 60.3095 1893.2 3.34546 1899.12 -54.7904C1957.56 -64.4376 2016.3 -66.1149 2073.89 -60.3639C2067.95 -2.13555 2054.42 54.9142 2033.85 109.304ZM1858.2 114.803C1878.73 60.4833 1892.24 3.51221 1898.18 -54.6349C1842.21 -45.3132 1786.51 -28.6773 1732.34 -4.25124L1732.31 -4.2393C1726.42 53.7362 1713.02 110.548 1692.65 164.737C1746.74 140.506 1802.34 124.019 1858.2 114.803ZM2073.98 -61.276C2016.39 -67.0271 1957.66 -65.3602 1899.21 -55.7352C1904.99 -113.334 1903.35 -172.074 1893.75 -230.528C1952.21 -240.153 2010.95 -241.806 2068.55 -236.031C2078.15 -177.589 2079.78 -118.86 2073.98 -61.276ZM1898.28 -55.5803C1904.08 -113.178 1902.45 -171.922 1892.85 -230.378C1836.84 -221.077 1781.1 -204.453 1726.9 -180.029C1736.51 -121.596 1738.17 -62.8746 1732.42 -5.29246C1786.6 -29.6754 1842.3 -46.2798 1898.28 -55.5803ZM2068.39 -236.967C2010.79 -242.722 1952.05 -241.057 1893.61 -231.433C1884.33 -287.446 1867.74 -343.19 1843.36 -397.407C1901.81 -407.003 1960.56 -408.629 2018.15 -402.826C2042.53 -348.649 2059.12 -292.943 2068.39 -236.967ZM1892.7 -231.283C1883.42 -287.296 1866.82 -343.04 1842.42 -397.252C1786.4 -387.973 1730.65 -371.368 1676.42 -346.961C1700.83 -292.739 1717.45 -236.988 1726.74 -180.965C1780.95 -205.367 1836.69 -221.981 1892.7 -231.283ZM2017.72 -403.791C1960.13 -409.547 1901.41 -407.887 1842.97 -398.272C1818.28 -452.973 1787.17 -502.759 1750.94 -547.14C1809.32 -556.757 1868 -558.422 1925.53 -552.674C1961.83 -508.303 1992.99 -458.512 2017.72 -403.791ZM1842.03 -398.117C1817.32 -452.824 1786.18 -502.604 1749.89 -546.967C1693.9 -537.651 1638.18 -521.017 1583.99 -496.588C1620.23 -452.23 1651.35 -402.47 1676.05 -347.797C1730.27 -372.202 1786.01 -388.817 1842.03 -398.117ZM1924.71 -553.677C1867.22 -559.341 1808.59 -557.614 1750.27 -547.958C1713.14 -593.28 1670.65 -632.945 1624.19 -666.43C1682.54 -675.987 1741.18 -677.602 1798.67 -671.816C1845.1 -638.436 1887.58 -598.882 1924.71 -553.677ZM1749.22 -547.785C1712.03 -593.115 1669.46 -632.769 1622.92 -666.22C1566.94 -656.94 1511.23 -640.346 1457.05 -615.961C1503.61 -582.443 1546.19 -542.721 1583.39 -497.322L1583.56 -497.401C1637.67 -521.8 1693.31 -538.437 1749.22 -547.785ZM1797.17 -672.886C1739.81 -678.521 1681.33 -676.799 1623.14 -667.187C1575.31 -701.522 1523.28 -729.32 1468.57 -750.011C1526.52 -759.52 1584.76 -761.195 1641.87 -755.565C1696.84 -734.985 1749.11 -707.233 1797.17 -672.886ZM1621.87 -666.974C1573.87 -701.328 1521.66 -729.098 1466.76 -749.712C1410.94 -740.394 1355.39 -723.799 1301.36 -699.456C1356.16 -678.769 1408.28 -650.953 1456.19 -616.579L1456.21 -616.591C1510.32 -640.99 1565.96 -657.627 1621.87 -666.974ZM1638.53 -756.807C1581.92 -762.093 1524.24 -760.214 1466.86 -750.657C1413.62 -770.624 1357.86 -783.871 1300.95 -789.875C1416.09 -808.359 1532.26 -795.956 1638.53 -756.807ZM1465.05 -750.353C1411.28 -770.375 1354.96 -783.541 1297.49 -789.31C1241.77 -780.063 1186.31 -763.568 1132.37 -739.356C1189.92 -733.437 1246.32 -720.109 1300.14 -699.913L1300.79 -700.204C1354.45 -724.401 1409.61 -740.963 1465.05 -750.353ZM1130.9 -739.7C1184.18 -763.728 1238.95 -780.228 1294 -789.652C1182.81 -800.227 1067.48 -783.121 958.279 -734.446C1015.9 -743.697 1073.78 -745.222 1130.55 -739.541L1130.9 -739.7ZM1695.82 1726.69C1651.77 1762.47 1602.42 1793.21 1548.24 1817.64L1547.61 1817.92C1547.24 1818.09 1546.87 1818.26 1546.5 1818.42C1489.1 1812.4 1432.87 1799.01 1379.22 1778.77C1433.69 1754.16 1483.27 1723.18 1527.5 1687.1C1581.49 1707.39 1638.07 1720.77 1695.82 1726.69ZM1816.45 1598.75C1782.7 1645.65 1742.64 1688.49 1696.82 1725.87C1639.02 1720.02 1582.37 1706.7 1528.32 1686.43C1574.1 1648.97 1614.12 1606.05 1647.83 1559.08C1701.91 1579.43 1758.6 1592.83 1816.45 1598.75ZM1899.08 1445.26C1878.5 1499.27 1850.98 1550.63 1817.07 1597.9C1759.2 1592.02 1702.48 1578.64 1648.39 1558.31C1682.27 1510.97 1709.76 1459.53 1730.3 1405.46C1784.42 1425.86 1841.17 1439.31 1899.08 1445.26ZM1939.66 1274.73C1933.65 1332.96 1920.05 1390 1899.42 1444.38C1841.5 1438.45 1784.75 1425.01 1730.62 1404.61C1751.22 1350.17 1764.78 1293.08 1770.74 1234.81C1824.9 1255.26 1881.69 1268.75 1939.66 1274.73ZM1934.52 1099.08C1944.05 1157.52 1945.61 1216.25 1939.75 1273.82C1881.78 1267.84 1824.99 1254.34 1770.84 1233.86C1776.64 1176.33 1775.05 1117.65 1765.51 1059.26C1819.7 1079.69 1876.53 1093.15 1934.52 1099.08ZM1884.36 932.312C1908.65 986.488 1925.16 1042.18 1934.37 1098.15C1876.36 1092.19 1819.53 1078.69 1765.34 1058.21C1756.12 1002.35 1739.64 946.747 1715.4 892.658C1769.59 913.024 1826.39 926.425 1884.36 932.312ZM1792.06 782.496C1828.17 826.779 1859.17 876.441 1883.77 930.997L1883.92 931.346C1825.91 925.409 1769.08 911.935 1714.87 891.479L1714.72 891.133C1690.16 836.661 1659.22 787.06 1623.2 742.814C1677.35 763.182 1734.12 776.592 1792.06 782.496ZM1665.75 663.411C1711.99 696.808 1754.28 736.341 1791.24 781.491C1733.17 775.493 1676.28 761.943 1622.04 741.398C1585.53 696.8 1543.83 657.676 1498.26 624.524C1552.01 644.507 1608.31 657.648 1665.75 663.411ZM1510.49 579.815C1564.92 600.465 1616.67 628.16 1664.26 662.338C1606.34 656.388 1549.58 642.922 1495.45 622.494C1453.21 592.095 1407.69 566.801 1359.92 547.005C1408.52 563.602 1459.05 574.668 1510.49 579.815ZM1362.22 542.129C1411.84 548.864 1460.45 561.121 1507.13 578.548C1451.57 572.697 1397.11 559.934 1345.03 540.746C1350.75 541.281 1356.48 541.742 1362.22 542.129ZM1334.46 538.028C1328.75 537.495 1323.02 537.035 1317.29 536.648C1267.69 529.915 1219.09 517.662 1172.42 500.241C1227.95 506.092 1282.39 518.85 1334.46 538.028ZM993.374 596.164C936.128 590.027 880.05 576.56 826.546 556.294C772.495 580.74 723.256 611.468 679.304 647.227C733.219 667.563 789.741 680.99 847.429 686.965C891.014 651.34 939.817 620.664 993.374 596.164ZM846.431 687.783C788.8 681.735 732.339 668.259 678.483 647.896C632.631 685.322 592.554 728.23 558.792 775.191C612.839 795.574 669.506 809.015 727.341 814.965C760.94 768.081 800.815 725.216 846.431 687.783ZM726.727 815.823C668.912 809.829 612.267 796.36 558.238 775.962C524.316 823.287 496.798 874.714 476.235 928.783C530.369 949.168 587.127 962.59 645.052 968.498C665.533 914.498 692.941 863.124 726.727 815.823ZM644.716 969.385C586.796 963.456 530.043 950.025 475.91 929.64C455.172 984.397 441.563 1041.85 435.655 1100.5C489.821 1120.93 546.617 1134.38 604.584 1140.32C610.456 1081.65 624.023 1024.17 644.716 969.385ZM604.494 1141.23C546.529 1135.3 489.732 1121.85 435.561 1101.44C429.882 1158.63 431.528 1216.95 441.029 1274.98C495.219 1295.39 552.038 1308.82 610.023 1314.71C600.517 1256.7 598.85 1198.41 604.494 1141.23ZM610.178 1315.65C552.204 1309.78 495.392 1296.38 441.201 1276.03C450.498 1332.26 467.174 1388.21 491.71 1442.63L491.866 1442.97C546.068 1463.43 602.906 1476.9 660.916 1482.84L660.758 1482.49C636.187 1428 619.488 1371.96 610.178 1315.65ZM661.353 1483.81C603.386 1477.92 546.583 1464.52 492.401 1444.15C516.979 1498.3 547.868 1547.61 583.806 1591.6C637.962 1612 694.745 1625.42 752.695 1631.32C716.783 1587.3 685.915 1537.97 661.353 1483.81ZM753.516 1632.33C695.699 1626.52 639.033 1613.23 584.964 1593.02C622.657 1638.9 665.855 1678.96 713.115 1712.64C767.003 1732.8 823.475 1746.07 881.097 1751.9C834.047 1718.18 791.044 1678.14 753.516 1632.33ZM882.597 1752.97C929.573 1786.44 980.553 1813.63 1034.12 1833.99C919.751 1822.11 809.969 1780.93 716.01 1714.7C769.498 1734.4 825.491 1747.33 882.597 1752.97ZM983.71 -647.919C1027.6 -683.575 1076.75 -714.218 1130.7 -738.604C1188.42 -732.807 1244.98 -719.549 1298.96 -699.377C1245.03 -674.867 1195.89 -644.102 1152.03 -608.33C1098.05 -628.621 1041.46 -641.999 983.71 -647.919ZM982.704 -647.1C936.88 -609.725 896.819 -566.875 863.06 -519.977C920.917 -514.056 977.61 -500.648 1031.69 -480.302C1065.41 -527.27 1105.43 -570.197 1151.21 -607.659C1097.16 -627.924 1040.51 -641.254 982.704 -647.1ZM862.443 -519.118C828.531 -471.85 801.01 -420.485 780.431 -366.479C838.347 -360.53 895.096 -347.079 949.221 -326.676C969.764 -380.749 997.252 -432.185 1031.14 -479.53C977.037 -499.861 920.321 -513.241 862.443 -519.118ZM780.093 -365.592C759.312 -310.823 745.666 -253.349 739.726 -194.683C797.693 -188.77 854.493 -175.343 908.669 -154.952C914.577 -213.597 928.176 -271.055 948.896 -325.819C894.769 -346.222 838.015 -359.664 780.093 -365.592ZM739.635 -193.771C733.927 -136.606 735.537 -78.3171 744.994 -20.3047C802.988 -14.3673 859.812 -0.908106 914.007 19.5207C904.529 -38.5106 902.895 -96.8194 908.575 -154.008C854.404 -174.419 797.603 -187.858 739.635 -193.771ZM795.747 147.78L795.76 147.808C853.727 153.694 910.53 167.096 964.713 187.461C940.153 132.95 923.469 76.8926 914.178 20.5653C859.985 0.0886515 803.153 -13.407 745.148 -19.3672C754.427 37.046 771.132 93.1908 795.747 147.78ZM796.197 148.774C820.726 202.94 851.566 252.269 887.456 296.283C945.39 302.186 1002.16 315.597 1056.31 335.963C1020.51 291.987 989.736 242.722 965.246 188.641C911.044 168.185 854.206 154.711 796.197 148.774ZM888.277 297.288C925.792 343.112 968.789 383.149 1015.84 416.859C1073.69 422.791 1130.37 436.208 1184.44 456.561C1137.63 422.922 1094.83 383.016 1057.47 337.379C1003.23 316.835 946.343 303.286 888.277 297.288ZM1017.35 417.937C1064.37 451.433 1115.41 478.625 1169.05 498.974C1220.48 504.123 1271 515.187 1319.6 531.781C1273.07 512.5 1228.68 488.002 1187.37 458.652C1132.89 437.825 1075.72 424.065 1017.35 417.937ZM1851.63 523.095C1797.81 502.898 1741.41 489.571 1683.86 483.652C1738.32 458.98 1787.89 427.937 1832.1 391.802C1889.79 397.778 1946.31 411.208 2000.23 431.547C1956.09 467.463 1906.61 498.306 1852.28 522.805L1851.63 523.095ZM2001.05 430.878C1947.19 410.512 1890.73 397.034 1833.1 390.984C1878.71 353.553 1918.58 310.691 1952.17 263.812C2010.01 269.763 2066.68 283.205 2120.73 303.589C2086.97 350.548 2046.9 393.453 2001.05 430.878ZM2121.28 302.819C2067.25 282.419 2010.61 268.948 1952.79 262.954C1986.57 215.655 2013.98 164.284 2034.46 110.288C2092.39 116.195 2149.15 129.618 2203.28 150.003C2182.72 204.07 2155.2 255.495 2121.28 302.819ZM2203.61 149.146C2149.47 128.761 2092.72 115.329 2034.79 109.4C2055.34 55.0043 2068.86 -2.04548 2074.8 -60.2722C2132.77 -54.4036 2189.57 -41.0099 2243.75 -20.6437C2237.79 37.6303 2224.22 94.7218 2203.61 149.146ZM2243.85 -21.5868C2189.66 -41.9331 2132.86 -55.3159 2074.89 -61.1843C2080.69 -118.767 2079.07 -177.493 2069.49 -235.935C2127.48 -230.037 2184.3 -216.609 2238.49 -196.204C2248.05 -137.806 2249.66 -79.1241 2243.85 -21.5868ZM2238.32 -197.248C2184.12 -217.605 2127.31 -230.997 2069.34 -236.872C2060.08 -292.84 2043.53 -348.541 2019.2 -402.719C2077.21 -396.782 2134.05 -383.309 2188.25 -362.853C2212.54 -308.753 2229.07 -253.134 2238.32 -197.248ZM2187.72 -364.033C2133.54 -384.397 2076.74 -397.799 2018.77 -403.685L2018.76 -403.713C1994.1 -458.396 1963.02 -508.169 1926.82 -552.544C1984.77 -546.641 2041.55 -533.218 2095.7 -512.827C2131.94 -468.474 2163.04 -418.712 2187.72 -364.033ZM2094.55 -514.24C2040.48 -534.454 1983.82 -547.738 1926 -553.548C1889.02 -598.692 1846.73 -638.225 1800.49 -671.629C1858.55 -665.625 1915.43 -652.073 1969.65 -631.527C2015.64 -598.329 2057.72 -559.064 2094.55 -514.24ZM1966.79 -633.583C1912.95 -653.67 1856.55 -666.89 1799 -672.703C1751.46 -706.851 1699.77 -734.538 1645.42 -755.205C1761.12 -743.177 1872.12 -701.17 1966.79 -633.583ZM1526.51 1686.73C1482.31 1722.72 1432.77 1753.62 1378.35 1778.15L1378.01 1778.31C1323.84 1757.76 1272.31 1730.22 1224.9 1696.26C1279.24 1671.65 1328.72 1640.7 1372.86 1604.67C1420.45 1638.67 1472.15 1666.2 1526.51 1686.73ZM1646.94 1558.75C1613.21 1605.71 1573.15 1648.62 1527.33 1686.06C1472.94 1665.57 1421.21 1638.06 1373.6 1604.07C1419.41 1566.57 1459.45 1523.59 1493.18 1476.57C1540.79 1510.61 1592.54 1538.19 1646.94 1558.75ZM1729.44 1405.14C1708.9 1459.21 1681.4 1510.64 1647.5 1557.98C1593.08 1537.44 1541.33 1509.87 1493.71 1475.82C1527.6 1428.42 1555.09 1376.92 1575.62 1322.79C1623.24 1356.9 1675.01 1384.54 1729.44 1405.14ZM1769.85 1234.47C1763.91 1292.75 1750.36 1349.85 1729.76 1404.28C1675.33 1383.68 1623.57 1356.03 1575.95 1321.9C1596.53 1267.42 1610.06 1210.26 1615.97 1151.94C1663.61 1186.12 1715.4 1213.82 1769.85 1234.47ZM1764.52 1058.88C1774.11 1117.29 1775.74 1175.98 1769.95 1233.53C1715.49 1212.85 1663.7 1185.11 1616.08 1150.88C1621.82 1093.39 1620.17 1034.76 1610.59 976.414C1658.24 1010.58 1710.05 1038.25 1764.52 1058.88ZM1714.19 892.202C1738.52 946.31 1755.08 1001.94 1764.35 1057.84C1709.85 1037.15 1658.03 1009.39 1610.38 975.134C1601.11 919.388 1584.6 863.912 1560.38 809.945C1608.01 844.022 1659.77 871.628 1714.19 892.202ZM1621.49 742.168C1657.78 786.53 1688.94 836.311 1713.66 891.02C1659.14 870.323 1607.3 842.554 1559.63 808.279C1534.96 753.695 1503.89 704.011 1467.7 659.713C1515.31 693.859 1567.07 721.531 1621.49 742.168ZM1495.01 623.308C1541.16 656.524 1583.38 695.84 1620.32 740.742C1565.45 719.785 1513.31 691.659 1465.43 656.941C1432.06 616.541 1394.42 580.675 1353.51 549.72C1397.7 579.843 1445.25 604.515 1495.01 623.308ZM1492.09 621.214C1445.78 588.256 1395.59 561.408 1342.86 541.185C1389.16 574.143 1439.36 600.991 1492.09 621.214ZM825.338 555.835C771.239 535.226 719.786 507.661 672.438 473.691L672.411 473.703C618.244 498.129 568.9 528.86 524.857 564.639C572.369 598.683 624.012 626.274 678.312 646.852C722.204 611.085 771.369 580.33 825.338 555.835ZM677.492 647.521C623.222 626.905 571.608 599.293 524.12 565.239C478.197 602.653 438.055 645.563 404.236 692.535C451.808 726.633 503.525 754.26 557.904 774.855C591.642 727.891 631.684 684.972 677.492 647.521ZM557.351 775.626C502.981 755.012 451.272 727.376 403.701 693.279C369.721 740.61 342.153 792.05 321.547 846.139C369.17 880.249 420.942 907.877 475.378 928.459C495.939 874.391 523.447 822.962 557.351 775.626ZM475.052 929.317C420.618 908.734 368.843 881.117 321.21 847.026C300.464 901.714 286.832 959.1 280.883 1017.68C328.515 1051.85 380.306 1079.53 434.768 1100.16C440.696 1041.52 454.315 984.071 475.052 929.317ZM434.673 1101.11C380.216 1080.5 328.423 1052.85 280.777 1018.73C275.063 1075.89 276.667 1134.17 286.117 1192.18C333.763 1226.34 385.566 1254 440.039 1274.61C430.587 1216.58 428.974 1158.28 434.673 1101.11ZM440.21 1275.65C385.765 1255.11 333.977 1227.52 286.326 1193.46C295.581 1249.59 312.187 1305.45 336.624 1359.77C384.288 1394.05 436.13 1421.82 490.654 1442.51C466.129 1388.01 449.476 1331.97 440.21 1275.65ZM491.187 1443.7C436.766 1423.12 385.002 1395.52 337.377 1361.44C361.781 1415.31 392.427 1464.39 428.075 1508.22C475.736 1542.49 527.575 1570.26 582.096 1590.96C546.352 1546.99 515.633 1497.75 491.187 1443.7ZM583.252 1592.37C620.492 1637.92 663.139 1677.77 709.793 1711.39C602.398 1670.57 505.424 1602.31 430.295 1510.93C477.695 1544.66 529.164 1571.99 583.252 1592.37ZM1153.02 -607.956C1196.95 -643.72 1246.16 -674.46 1300.18 -698.922C1355.06 -678.292 1407.25 -650.507 1455.22 -616.143C1401.12 -591.645 1351.84 -560.86 1307.86 -525.041C1259.95 -559.429 1207.83 -587.257 1153.02 -607.956ZM1152.2 -607.286C1106.37 -569.849 1066.32 -526.933 1032.58 -479.967C1087.37 -459.264 1139.48 -431.433 1187.37 -397.046C1221.16 -444.04 1261.25 -486.98 1307.12 -524.441C1259.19 -558.819 1207.04 -586.625 1152.2 -607.286ZM1032.03 -479.196C998.121 -431.861 970.622 -380.427 950.079 -326.352C1004.84 -305.625 1056.91 -277.778 1104.77 -243.381C1125.35 -297.484 1152.9 -348.943 1186.84 -396.301C1138.94 -430.689 1086.83 -458.512 1032.03 -479.196ZM949.754 -325.495C929.033 -270.73 915.444 -213.267 909.557 -154.617C964.274 -133.935 1016.31 -106.145 1064.14 -71.8165C1070.09 -130.398 1083.71 -187.792 1104.43 -242.494C1056.58 -276.91 1004.52 -304.768 949.754 -325.495ZM909.463 -153.673C903.803 -96.4695 905.471 -38.1462 914.997 19.895C969.635 40.5888 1021.59 68.3718 1069.36 102.677C1059.93 44.6717 1058.33 -13.6071 1064.04 -70.764C1016.21 -105.139 964.185 -132.966 909.463 -153.673ZM965.635 187.276L965.925 187.918C1020.35 208.492 1072.11 236.097 1119.74 270.174C1095.37 215.875 1078.8 160.049 1069.57 103.957C1021.8 69.5563 969.835 41.6944 915.17 20.9409C924.476 77.0809 941.137 132.949 965.635 187.276ZM966.461 189.101C991.084 243.281 1022.03 292.61 1058.02 336.609C1112 357.078 1163.36 384.468 1210.65 418.232C1175.22 374.484 1144.76 325.533 1120.49 271.84C1072.82 237.566 1020.98 209.798 966.461 189.101ZM1059.19 338.035C1097.02 384.009 1140.37 424.127 1187.8 457.837C1236.59 476.499 1283.22 500.822 1326.61 530.401C1284.94 498.876 1246.68 462.26 1212.86 420.947C1165.31 386.638 1113.6 358.813 1059.19 338.035ZM1190.86 460C1235.38 491.266 1283.43 516.918 1333.83 536.508C1289.31 505.242 1241.26 479.589 1190.86 460ZM2007.68 606.429C1959.77 572.056 1907.66 544.24 1852.85 523.553C1907.35 498.958 1956.97 467.988 2001.22 431.922C2055.97 452.674 2108.02 480.555 2155.86 514.994C2111.67 550.981 2062.12 581.881 2007.71 606.417L2007.68 606.429ZM2156.6 514.394C2108.78 479.946 2056.76 452.042 2002.04 431.253C2047.84 393.803 2087.88 350.886 2121.62 303.925C2176.39 324.669 2228.46 352.547 2276.31 386.986C2242.55 433.989 2202.46 476.935 2156.6 514.394ZM2276.85 386.241C2228.99 351.804 2176.93 323.918 2122.17 303.154C2156.07 255.82 2183.58 204.393 2204.14 150.327C2258.91 171.035 2310.98 198.874 2358.84 233.271C2338.29 287.392 2310.78 338.869 2276.85 386.241ZM2359.18 232.384C2311.31 198.006 2259.23 170.177 2204.47 149.47C2225.08 95.0465 2238.66 37.96 2244.64 -20.3095C2299.36 0.348229 2351.4 28.1227 2399.24 62.444C2393.31 120.766 2379.77 177.909 2359.18 232.384ZM2399.34 61.3923C2351.49 27.1181 2299.45 -0.619656 2244.74 -21.2528C2250.56 -78.7753 2248.99 -137.442 2239.48 -195.83C2294.12 -175.159 2346.07 -147.39 2393.83 -113.092C2403.43 -54.7427 2405.09 3.89351 2399.34 61.3923ZM2393.62 -114.371C2345.85 -148.574 2293.92 -176.263 2239.31 -196.875C2230.12 -252.727 2213.66 -308.315 2189.46 -362.395C2243.99 -341.698 2295.83 -313.929 2343.49 -279.653C2367.78 -225.661 2384.33 -170.152 2393.62 -114.371ZM2342.74 -281.322C2295.12 -315.398 2243.35 -343.003 2188.93 -363.576L2188.64 -364.217C2164.15 -418.544 2133.31 -468.024 2097.41 -512.18C2151.48 -491.654 2202.92 -464.174 2250.25 -430.291C2286.66 -385.911 2317.93 -336.09 2342.74 -281.322ZM2248 -433.017C2200.94 -466.345 2149.89 -493.383 2096.26 -513.597C2059.88 -558.093 2018.34 -597.148 1972.95 -630.269C2078.43 -589.671 2173.74 -522.548 2248 -433.017ZM1372.09 1604.12C1327.93 1640.14 1278.42 1671.07 1224.04 1695.65C1177.03 1661.87 1134.08 1621.76 1096.63 1575.87C1150.91 1551.32 1200.35 1520.45 1244.46 1484.51C1282 1530.34 1325.02 1570.39 1372.09 1604.12ZM1492.43 1476.03C1458.71 1523.06 1418.66 1566.03 1372.83 1603.52C1325.74 1569.81 1282.71 1529.76 1245.17 1483.93C1291.05 1446.44 1331.14 1403.48 1364.92 1356.46C1402.42 1402.27 1445.4 1442.31 1492.43 1476.03ZM1574.85 1322.24C1554.34 1376.38 1526.86 1427.88 1492.96 1475.29C1445.94 1441.56 1402.96 1401.52 1365.47 1355.69C1399.42 1308.29 1426.95 1256.79 1447.52 1202.65C1484.97 1248.46 1527.89 1288.5 1574.85 1322.24ZM1615.11 1151.32C1609.24 1209.67 1595.74 1266.84 1575.18 1321.35C1528.22 1287.59 1485.32 1247.51 1447.89 1201.66C1468.49 1147.18 1482.05 1090.03 1487.99 1031.7C1525.37 1077.51 1568.22 1117.56 1615.11 1151.32ZM1609.54 975.657C1619.21 1034.04 1620.92 1092.72 1615.22 1150.27C1568.32 1116.44 1525.48 1076.31 1488.12 1030.41C1493.85 973.082 1492.23 914.627 1482.73 856.45C1520.04 902.086 1562.78 941.999 1609.54 975.657ZM1558.9 808.88L1559.06 809.231C1583.38 863.173 1599.98 918.634 1609.32 974.373C1562.5 940.57 1519.73 900.477 1482.43 854.632C1473.26 799.411 1456.97 744.455 1433.12 690.968C1470.19 736.066 1512.57 775.542 1558.9 808.88ZM1464.79 657.614C1501.54 702.132 1533.1 752.161 1558.14 807.2C1511.48 773.458 1468.86 733.465 1431.68 687.756C1408.89 637.326 1380.63 591.078 1347.93 549.397C1382.78 590.433 1422.09 626.641 1464.79 657.614ZM1462.4 654.736C1427.52 612.959 1388.03 576.098 1345.07 544.575C1379.95 586.352 1419.44 623.213 1462.4 654.736ZM671.578 473.073C624.612 439.265 581.701 399.146 544.272 353.254C490.082 377.71 440.723 408.477 396.672 444.295C434.128 490.19 477.077 530.301 524.085 564.085C568.114 528.291 617.436 497.535 671.578 473.073ZM523.348 564.685C476.354 530.884 433.415 490.767 395.961 444.874C350.049 482.31 309.921 525.24 276.117 572.232C313.563 618.117 356.498 658.22 403.491 692C437.31 645.029 477.443 602.114 523.348 564.685ZM402.956 692.745C355.963 658.965 313.023 618.871 275.563 573.003C241.594 620.367 214.041 671.842 193.457 725.965C230.895 771.792 273.81 811.847 320.776 845.587C341.401 791.506 368.978 740.074 402.956 692.745ZM320.439 846.473C273.471 812.758 230.544 772.738 193.082 726.954C172.402 781.589 158.819 838.91 152.902 897.416C190.277 943.239 233.126 983.3 280.024 1017.06C286.017 958.504 299.678 901.141 320.439 846.473ZM279.917 1018.11C233.03 984.416 190.176 944.436 152.773 898.707C147.103 955.875 148.751 1014.16 158.248 1072.17C195.552 1117.83 238.295 1157.76 285.065 1191.43C275.704 1133.46 274.163 1075.22 279.917 1018.11ZM285.273 1192.71C238.57 1159.19 195.862 1119.44 158.547 1073.98C167.837 1129.76 184.389 1185.26 208.675 1239.25C245.859 1284.96 288.483 1324.96 335.139 1358.7C310.894 1304.47 294.43 1248.72 285.273 1192.71ZM335.889 1360.37L336.047 1360.72C360.079 1414.02 390.205 1462.65 425.232 1506.16C334.89 1440.47 259.768 1351.29 210.146 1242.5C247.207 1287.58 289.577 1327.04 335.889 1360.37ZM1308.63 -524.487C1352.64 -560.296 1401.95 -591.062 1456.08 -615.526C1502.69 -582.036 1545.3 -542.328 1582.53 -496.931C1528.38 -472.409 1479.07 -441.589 1435.06 -405.729C1397.84 -451.177 1355.23 -490.939 1308.63 -524.487ZM1307.89 -523.887C1262.01 -486.441 1221.9 -443.505 1188.12 -396.511C1234.74 -362.944 1277.37 -323.157 1314.6 -277.678C1348.37 -324.699 1388.47 -367.666 1434.35 -405.15C1397.12 -450.6 1354.51 -490.355 1307.89 -523.887ZM1187.58 -395.766C1153.64 -348.406 1126.11 -296.939 1105.54 -242.827C1152.16 -209.222 1194.78 -169.394 1232 -123.871C1252.57 -178.013 1280.1 -229.512 1314.04 -276.907C1276.83 -322.402 1234.21 -362.198 1187.58 -395.766ZM1105.2 -241.939C1084.49 -187.217 1070.9 -129.801 1065 -71.199C1111.62 -37.6366 1154.24 2.14404 1191.47 47.615C1197.39 -10.8997 1210.96 -68.2313 1231.62 -122.881C1194.43 -168.447 1151.82 -208.31 1105.2 -241.939ZM1064.9 -70.1449C1059.23 -12.9385 1060.89 45.3888 1070.41 103.434C1117 137.027 1159.59 176.834 1196.78 222.328C1187.31 164.333 1185.67 106.06 1191.34 48.9054C1154.14 3.34127 1111.53 -36.5191 1064.9 -70.1449ZM1121.06 270.889L1121.22 271.239C1167.54 304.573 1209.92 344.046 1246.98 389.138C1222.81 335.233 1206.34 279.824 1197.08 224.146C1159.9 178.443 1117.28 138.456 1070.62 104.718C1079.94 160.803 1096.59 216.615 1121.06 270.889ZM1121.98 272.919C1146.6 327.04 1177.52 376.318 1213.49 420.274C1256.67 451.443 1296.4 487.953 1331.59 529.383C1299.18 488.073 1271.13 442.279 1248.44 392.373C1211.26 346.659 1168.64 306.664 1121.98 272.919ZM1215.81 423.088C1251.51 466.236 1292.1 504.193 1336.36 536.5C1300.65 493.352 1260.07 455.395 1215.81 423.088ZM2134.88 725.687C2097.68 680.287 2055.1 640.565 2008.54 607.047C2062.93 582.474 2112.45 551.551 2156.63 515.549C2203.17 549.154 2245.71 588.974 2282.85 634.481C2238.74 670.342 2189.32 701.139 2135.06 725.608L2134.88 725.687ZM2283.56 633.902C2246.42 588.397 2203.89 548.57 2157.37 514.949C2203.22 477.476 2243.3 434.524 2277.06 387.522C2323.65 421.147 2366.23 460.998 2403.4 506.547C2369.6 553.537 2329.47 596.467 2283.56 633.902ZM2403.95 505.775C2366.77 460.243 2324.18 420.401 2277.59 386.777C2311.52 339.407 2339.04 287.937 2359.61 233.826C2406.24 267.434 2448.85 307.274 2486.06 352.817C2465.47 406.939 2437.92 458.412 2403.95 505.775ZM2486.43 351.827C2449.2 306.328 2406.58 266.522 2359.95 232.938C2380.56 178.483 2394.13 121.363 2400.09 63.061C2446.72 96.622 2489.34 136.411 2526.56 181.898C2520.61 240.219 2507.05 297.358 2486.43 351.827ZM2526.69 180.611C2489.44 135.216 2446.81 95.5066 2400.2 62.0089C2405.99 4.56059 2404.4 -54.0262 2394.89 -112.334C2441.49 -78.7359 2484.08 -38.9116 2521.27 6.60954C2530.79 64.7994 2532.42 123.271 2526.69 180.611ZM2520.97 4.7971C2483.77 -40.5156 2441.21 -80.1612 2394.68 -113.615C2385.49 -169.279 2369.08 -224.68 2344.98 -278.583C2391.63 -244.841 2434.26 -204.848 2471.44 -159.139C2495.4 -105.571 2511.75 -50.5207 2520.97 4.7971ZM2469.99 -162.363C2432.92 -207.453 2390.55 -246.922 2344.23 -280.255L2344.07 -280.604C2319.64 -334.791 2288.9 -384.156 2253.12 -428.226C2344.36 -362.188 2420.16 -272.237 2469.99 -162.363ZM1243.88 1483.8C1199.77 1519.74 1150.33 1550.61 1096.03 1575.14C1060.18 1531.09 1029.39 1481.73 1004.91 1427.54C1059.1 1403.06 1108.46 1372.28 1152.51 1336.45C1177.1 1390.55 1207.97 1439.83 1243.88 1483.8ZM1364.32 1355.72C1330.56 1402.76 1290.47 1445.73 1244.59 1483.22C1208.68 1439.25 1177.81 1389.97 1153.25 1335.85C1199.14 1298.42 1239.27 1255.51 1273.07 1208.54C1297.63 1262.58 1328.46 1311.8 1364.32 1355.72ZM1446.85 1201.83C1426.32 1256 1398.81 1307.53 1364.87 1354.95C1329.02 1311 1298.21 1261.75 1273.69 1207.68C1307.66 1160.34 1335.22 1108.89 1355.83 1054.8C1380.32 1108.77 1411.08 1157.94 1446.85 1201.83ZM1487.17 1030.69C1481.3 1089.08 1467.8 1146.3 1447.22 1200.84C1411.46 1156.89 1380.73 1107.65 1356.29 1053.59C1376.9 999.186 1390.48 942.115 1396.47 883.862C1420.88 937.743 1451.53 986.844 1487.17 1030.69ZM1481.57 855.022C1491.23 913.328 1492.96 971.927 1487.3 1029.4C1451.71 985.494 1421.13 936.336 1396.81 882.393L1396.65 882.043C1402.34 825.253 1400.81 767.354 1391.55 709.716C1415.85 763 1446.25 811.587 1481.57 855.022ZM1430.9 688.243L1431.1 688.699C1455.33 742.431 1471.9 797.67 1481.26 853.188C1445.85 809.415 1415.42 760.43 1391.19 706.699L1390.98 706.242C1382.97 657.986 1369.53 609.933 1350.35 562.884C1372.92 608.402 1400.04 650.29 1430.9 688.243ZM1429.38 684.909C1405.71 633.253 1376.28 586.031 1342.2 543.662C1365.87 595.318 1395.3 642.539 1429.38 684.909ZM543.673 352.519C507.842 308.46 477.059 259.098 452.58 204.909C398.39 229.388 349.034 260.181 304.989 296.026C329.466 350.203 360.254 399.548 396.093 443.584C440.144 407.766 489.496 376.992 543.673 352.519ZM395.382 444.163C359.543 400.127 328.748 350.789 304.254 296.625C258.362 334.081 218.255 377.029 184.474 424.036C208.939 478.174 239.707 527.485 275.518 571.496C309.337 524.518 349.472 481.598 395.382 444.163ZM274.963 572.267C239.143 528.279 208.356 478.997 183.857 424.896C149.902 472.303 122.371 523.821 101.818 577.986C126.281 632.008 157.022 681.219 192.789 725.145C213.409 671.052 240.984 619.607 274.963 572.267ZM192.412 726.134C156.638 682.27 125.871 633.134 101.36 579.196C80.7738 633.763 67.264 691.002 61.396 749.418C85.7822 803.365 116.426 852.519 152.083 896.41C158.075 837.965 171.706 780.708 192.412 726.134ZM151.952 897.702C116.317 853.962 85.6607 804.986 61.2155 751.24C55.6175 808.543 57.3725 866.963 67.0136 925.09C91.2986 978.512 121.728 1027.22 157.087 1070.74C147.754 1012.87 146.217 954.724 151.952 897.702ZM157.383 1072.56C166.457 1127.86 182.654 1182.9 206.432 1236.48C171.496 1193.06 141.445 1144.53 117.469 1091.36C93.4876 1038.18 77.0153 983.524 67.6017 928.579C91.9141 981.36 122.234 1029.5 157.383 1072.56ZM1435.64 -405.02C1479.65 -440.879 1528.97 -471.692 1583.13 -496.197C1619.38 -451.852 1650.51 -402.097 1675.21 -347.42C1621.02 -322.942 1571.66 -292.16 1527.61 -256.332C1502.93 -310.963 1471.84 -360.688 1435.64 -405.02ZM1434.93 -404.44C1389.05 -366.954 1348.96 -323.978 1315.2 -276.943C1351.35 -232.655 1382.39 -182.985 1407.05 -128.422C1440.86 -175.39 1480.98 -218.303 1526.87 -255.733C1502.21 -310.377 1471.13 -360.109 1434.93 -404.44ZM1314.64 -276.171C1280.71 -228.752 1253.2 -177.224 1232.67 -123.051C1268.73 -78.7973 1299.7 -29.1808 1324.29 25.3143C1344.9 -28.7762 1372.46 -80.2205 1406.43 -127.562L1406.42 -127.59C1381.8 -182.179 1350.78 -231.868 1314.64 -276.171ZM1232.29 -122.06C1211.66 -67.3496 1198.13 -9.9546 1192.29 48.6193C1228.22 92.6741 1259.09 142.047 1283.65 196.26C1289.64 138.006 1303.22 80.9342 1323.83 26.525L1323.54 25.8834C1299.05 -28.4437 1268.21 -77.9182 1232.29 -122.06ZM1192.16 49.9142C1186.56 107.214 1188.31 165.631 1197.95 223.757C1233.55 267.551 1264.17 316.584 1288.57 370.386C1279.31 312.754 1277.78 254.862 1283.47 198.079L1283.31 197.727C1258.84 143.453 1228.03 94.0228 1192.16 49.9142ZM1248.41 390.08C1248.68 390.682 1248.96 391.284 1249.23 391.886C1280.09 429.836 1307.2 471.721 1329.77 517.235C1310.6 470.19 1297.15 422.14 1289.14 373.888L1289.05 373.683L1288.78 373.082L1288.64 372.761L1288.33 372.08C1264.1 318.349 1233.67 269.364 1198.26 225.59C1207.62 281.109 1224.18 336.348 1248.41 390.08ZM1250.77 395.245C1274.32 446.35 1303.52 493.098 1337.29 535.083C1313.73 483.978 1284.53 437.229 1250.77 395.245ZM2375.13 784.095C2331.09 819.939 2281.73 850.732 2227.54 875.212C2202.84 820.538 2171.73 770.778 2135.48 726.421C2189.8 701.922 2239.28 671.09 2283.43 635.192C2319.36 679.348 2350.22 728.841 2374.72 783.192L2375.13 784.095ZM2375.56 782.815C2351.02 728.39 2320.12 678.829 2284.14 634.613C2330.04 597.179 2370.18 554.26 2404 507.282C2439.92 551.431 2470.77 600.914 2495.27 655.251L2495.39 655.521L2495.65 656.084C2461.86 703.091 2421.76 746.039 2375.87 783.495L2375.56 782.815ZM2496.11 654.874C2471.53 600.384 2440.59 550.768 2404.55 506.511C2438.53 459.172 2466.11 407.728 2486.73 353.637C2522.71 397.83 2553.61 447.375 2578.15 501.787L2578.3 502.133C2557.75 556.298 2530.22 607.816 2496.26 655.223L2496.11 654.874ZM2578.76 500.921C2554.15 446.458 2523.17 396.872 2487.1 352.647C2507.75 298.238 2521.36 241.163 2527.38 182.901C2563.32 226.997 2594.19 276.424 2618.72 330.703C2612.86 389.117 2599.35 446.354 2578.76 500.921ZM2618.9 328.882C2594.31 274.805 2563.42 225.557 2527.51 181.613C2533.31 124.419 2531.79 66.0926 2522.43 8.03367C2558.08 51.9223 2588.72 101.074 2613.1 155.017C2622.75 213.15 2624.5 271.574 2618.9 328.882ZM2612.51 151.502C2588.1 98.21 2557.57 49.6299 2522.13 6.21933C2513.13 -48.6284 2497.12 -103.225 2473.66 -156.389C2508.61 -112.958 2538.67 -64.4265 2562.65 -11.2446C2586.63 41.9248 2603.1 96.5701 2612.51 151.502ZM1152.12 1335.59C1108.08 1371.43 1058.72 1402.22 1004.53 1426.7C979.905 1371.99 963.221 1315.73 953.991 1259.19C1008.03 1234.74 1057.25 1204.02 1101.21 1168.28C1110.53 1224.44 1127.21 1280.33 1151.72 1334.68C1151.85 1334.99 1151.99 1335.29 1152.12 1335.59ZM1272.64 1207.58C1238.86 1254.58 1198.75 1297.53 1152.86 1334.99L1152.55 1334.31C1128 1279.86 1111.32 1223.87 1102.03 1167.61C1147.88 1130.2 1187.97 1087.31 1221.76 1040.37C1231.08 1096.53 1247.76 1152.4 1272.26 1206.74L1272.64 1207.58ZM1355.29 1053.63C1334.74 1107.79 1307.21 1159.31 1273.26 1206.72L1273.1 1206.37C1248.5 1151.81 1231.8 1095.7 1222.51 1039.32C1256.45 991.992 1283.98 940.565 1304.57 886.496C1313.88 942.787 1330.57 998.807 1355.14 1053.28L1355.29 1053.63ZM1395.71 882.196C1389.85 940.61 1376.34 997.847 1355.75 1052.41C1331.12 997.665 1314.43 941.357 1305.22 884.786C1325.78 830.337 1339.3 773.229 1345.23 714.943C1354.48 771.387 1371.14 827.567 1395.71 882.196ZM1390.1 706.509C1399.74 764.637 1401.49 823.057 1395.9 880.36C1371.22 825.16 1354.62 768.388 1345.58 711.372C1350.64 658.863 1349.53 605.424 1341.85 552.136C1351.44 604.241 1367.39 656.037 1390.1 706.509ZM1389.49 702.898C1380.29 649.307 1364.38 595.989 1341.34 544.05C1350.54 597.64 1366.44 650.958 1389.49 702.898ZM452.203 204.073C427.578 149.366 410.884 93.1031 401.633 36.5747C347.45 61.0131 298.094 91.7609 254.043 127.559C263.27 184.122 279.959 240.422 304.599 295.161C348.656 259.333 398.016 228.551 452.203 204.073ZM303.863 295.76C279.21 241.044 262.493 184.768 253.223 128.226C207.361 165.617 167.269 208.489 133.486 255.415C142.708 311.996 159.395 368.314 184.039 423.071C217.848 376.103 257.97 333.19 303.863 295.76ZM183.421 423.931L183.408 423.903C158.75 369.22 142.02 312.979 132.729 256.469C98.7897 303.806 71.2583 355.249 50.6875 409.336C59.9392 465.857 76.6418 522.112 101.285 576.807C121.894 522.717 149.456 471.272 183.421 423.931ZM100.826 578.017C100.729 577.803 100.633 577.59 100.536 577.376C76.0387 523.05 59.3663 467.184 50.0401 411.045C29.6269 465.159 16.1728 521.9 10.2291 579.81C19.3841 636.481 36.0244 692.895 60.6441 747.749C66.635 689.495 80.2155 632.425 100.826 578.017ZM60.4592 749.571C54.7766 806.351 56.3037 864.239 65.5585 921.867C16.2004 811.785 -1.02996 695.424 9.87749 583.327C19.2175 639.318 35.8669 695.035 60.3007 749.22L60.4592 749.571ZM1528 -255.467C1572.04 -291.312 1621.4 -322.105 1675.59 -346.584C1700 -292.359 1716.6 -236.602 1725.88 -180.575C1671.7 -156.098 1622.35 -125.319 1578.3 -89.4959C1569.01 -145.51 1552.4 -201.253 1528 -255.467ZM1527.26 -254.868C1481.37 -217.411 1441.26 -174.464 1407.48 -127.456C1431.86 -73.277 1448.46 -17.5715 1457.76 38.4056C1491.54 -8.53075 1531.63 -51.417 1577.49 -88.8289C1568.23 -144.864 1551.65 -200.631 1527.26 -254.868ZM1406.86 -126.595C1372.91 -79.188 1345.38 -27.6696 1324.83 26.4954C1349.14 80.6533 1365.69 136.332 1374.95 192.279C1395.54 138.211 1423.07 86.7858 1457 39.4571C1447.77 -16.5799 1431.22 -72.3514 1406.86 -126.595ZM1324.37 27.7106C1303.78 82.2764 1290.27 139.513 1284.4 197.926C1308.58 251.664 1325.1 306.902 1334.43 362.417C1340.43 304.622 1353.9 247.997 1374.3 193.989C1365.16 137.882 1348.67 82.0341 1324.37 27.7106ZM1284.22 199.761C1278.63 257.068 1280.38 315.492 1290.03 373.623C1312.41 423.667 1328.16 475.002 1337.67 526.641C1329.91 472.845 1328.85 418.894 1334.08 365.902C1324.95 309.843 1308.49 254.042 1284.22 199.761ZM1290.64 377.265C1299.75 430.366 1315.46 483.198 1338.17 534.687C1329.05 481.586 1313.35 428.754 1290.64 377.265ZM2278.24 1042.04C2268.94 986.02 2252.32 930.269 2227.92 876.047C2282.1 851.57 2331.46 820.788 2375.52 784.961C2399.83 839.278 2416.32 895.121 2425.47 951.223C2381.51 986.941 2332.28 1017.63 2278.24 1042.04ZM2426.29 950.556C2417.1 894.475 2400.58 838.656 2376.25 784.362C2422.15 746.932 2462.27 704.019 2496.08 657.051C2520.39 711.386 2536.88 767.246 2546.03 823.364C2512.25 870.292 2472.15 913.165 2426.29 950.556ZM2546.79 822.311C2537.57 766.253 2521.03 710.46 2496.7 656.191C2530.66 608.849 2558.23 557.405 2578.83 503.316C2603.15 557.587 2619.65 613.382 2628.83 669.439C2608.26 723.528 2580.73 774.971 2546.79 822.311ZM2629.48 667.73C2620.19 611.833 2603.62 556.208 2579.29 502.103C2599.9 447.696 2613.48 390.626 2619.48 332.373C2643.69 386.326 2660.19 441.789 2669.43 497.521C2663.57 555.932 2650.06 613.166 2629.48 667.73ZM2619.82 330.9L2619.66 330.551C2625.34 273.776 2623.82 215.893 2614.56 158.27C2663.25 267.485 2680.35 382.833 2669.77 494.031C2660.35 438.969 2643.85 384.194 2619.82 330.9ZM401.481 35.638C392.084 -22.2991 390.502 -80.5072 396.208 -137.595C342.064 -113.132 292.746 -82.3664 248.73 -46.5558C242.985 10.4748 244.524 68.6287 253.873 126.515C297.895 90.7991 347.198 60.1158 401.308 35.716L401.481 35.638ZM253.053 127.182C243.665 69.3519 242.064 11.2508 247.726 -45.7379C201.935 -8.33458 161.908 34.5383 128.183 81.4561C122.456 138.358 123.981 196.378 133.279 254.135C167.096 207.296 207.2 164.505 253.053 127.182ZM132.52 255.188C123.166 197.588 121.536 139.72 127.113 82.9488C93.1772 130.435 65.6798 182.034 45.177 236.277C39.6117 292.723 41.1811 350.257 50.3948 407.532C71.0406 353.628 98.598 302.365 132.52 255.188ZM49.743 409.241C40.4795 352.517 38.7095 295.528 43.9389 239.579C4.52821 345.518 -8.26531 461.39 9.67463 576.318C15.855 518.98 29.3895 462.816 49.743 409.241ZM2629.77 669.534C2650.3 615.5 2663.89 558.833 2670 500.983C2688.74 617.785 2675.7 735.652 2635.2 843.165C2640.89 785.943 2639.26 727.599 2629.77 669.534ZM2546.99 823.591C2580.92 776.413 2608.48 725.149 2629.12 671.243C2638.55 729.867 2639.98 788.762 2633.94 846.483C2613.37 900.217 2585.92 951.325 2552.15 998.371C2558.03 940.786 2556.49 882.05 2546.99 823.591ZM2426.46 951.599C2472.31 914.276 2512.42 871.485 2546.24 824.644C2555.67 883.261 2557.1 942.149 2551.07 999.865C2517.33 1046.59 2477.32 1089.28 2431.58 1126.52C2437.48 1068.89 2435.95 1010.11 2426.46 951.599ZM2278.39 1042.98C2332.43 1018.59 2381.67 987.941 2425.64 952.266C2435.09 1010.83 2436.56 1069.67 2430.57 1127.34C2386.76 1162.87 2337.72 1193.4 2283.91 1217.72C2289.67 1160.13 2288.01 1101.41 2278.39 1042.98ZM1340.13 546.797C1335.31 599.871 1336.79 653.87 1345.01 707.676C1349.83 654.602 1348.34 600.604 1340.13 546.797ZM1344.66 711.401C1336.47 659.648 1334.51 607.696 1338.4 556.534C1331.71 609.598 1318.73 661.565 1299.87 711.305C1294.21 767.876 1295.73 825.549 1304.92 882.965C1325.54 827.966 1338.98 770.269 1344.66 711.401ZM1304.27 884.692C1295.02 827.799 1293.31 770.643 1298.63 714.54C1278.02 768.055 1250.59 818.953 1216.89 865.818C1211.3 922.582 1212.94 980.447 1222.3 1038.04C1256.25 990.55 1283.76 938.944 1304.27 884.692ZM1221.55 1039.1C1212.12 981.653 1210.39 923.933 1215.82 867.293C1182.06 913.962 1142.06 956.601 1096.33 993.804C1090.74 1050.75 1092.4 1108.8 1101.85 1166.57C1147.72 1129.09 1187.8 1086.12 1221.55 1039.1ZM1101.03 1167.24C1091.55 1109.52 1089.82 1051.52 1095.33 994.617C1051.52 1030.13 1002.47 1060.66 948.666 1084.98C942.913 1142.08 944.462 1200.3 953.839 1258.26C1007.88 1233.78 1057.1 1203.02 1101.03 1167.24ZM1578.48 -88.4538C1622.51 -124.321 1671.85 -155.136 1726.03 -179.639C1735.63 -121.187 1737.26 -62.4494 1731.45 -4.85725C1677.32 19.6073 1628 50.3644 1583.98 86.1598C1589.73 28.618 1588.07 -30.0611 1578.48 -88.4538ZM1339.84 534.926C1344.93 480.368 1343.35 424.822 1334.65 369.5C1329.57 424.057 1331.14 479.603 1339.84 534.926ZM1341.72 523.587C1345.68 471.487 1343.57 418.567 1335 365.873C1340.76 307.525 1354.15 250.341 1374.6 195.81C1384.01 254.593 1385.37 313.646 1379.24 371.51C1360.92 420.431 1348.28 471.48 1341.72 523.587ZM1380.51 368.146C1386.29 310.79 1384.71 252.299 1375.25 194.083C1395.76 139.833 1423.26 88.2284 1457.21 40.7391C1466.72 99.1916 1468.26 157.923 1462.37 215.5C1428.52 262.783 1401.05 314.148 1380.51 368.146ZM1463.45 214.007C1469.18 156.559 1467.53 97.9791 1457.97 39.683C1491.72 -7.33939 1531.79 -50.3061 1577.66 -87.7852C1587.22 -29.3369 1588.81 29.3945 1582.97 86.9774C1537.21 124.338 1497.18 167.154 1463.45 214.007ZM1095.46 993.334C1051.65 1028.94 1002.6 1059.55 948.773 1083.92C954.782 1025.21 968.51 967.707 989.382 912.917C1042.8 888.729 1091.51 858.413 1135.07 823.176C1114.62 877.74 1101.23 934.955 1095.46 993.334ZM1216 865.482C1182.27 912.344 1142.24 955.163 1096.46 992.517C1102.33 934.01 1115.86 876.681 1136.48 822.033C1181.76 785.203 1221.43 743.044 1254.99 696.92C1234.88 751.005 1221.7 807.673 1216 865.482ZM1298.97 711.094C1278.44 765.185 1250.96 816.637 1217.07 863.991C1222.96 805.695 1236.47 748.574 1257.02 694.115C1287.22 652.155 1312.38 606.958 1332.12 559.543C1315.33 608.446 1304.15 659.309 1298.97 711.094ZM1300.23 707.726C1319.98 654.819 1333.1 599.426 1339.05 542.904C1319.3 595.811 1306.19 651.204 1300.23 707.726ZM396.314 -138.649C402.272 -197.314 415.926 -254.786 436.706 -309.557C382.692 -285.18 333.477 -254.533 289.535 -218.862C268.639 -164.071 254.89 -106.559 248.861 -47.8436C292.881 -83.5574 342.181 -114.239 396.288 -138.637L396.314 -138.649ZM247.856 -47.0266C253.79 -105.608 267.4 -163.002 288.115 -217.706C242.622 -180.569 202.814 -138.035 169.22 -91.4992C148.254 -36.6802 134.446 20.8701 128.369 79.6293C162.12 32.9097 202.127 -9.77866 247.856 -47.0266ZM127.295 81.1203C93.553 128.099 66.1189 179.124 45.5322 232.769C57.555 117.072 99.5574 6.07239 167.139 -88.6013C146.646 -34.1835 133.178 22.8826 127.295 81.1203ZM1583.85 87.448C1627.86 51.5618 1677.18 20.7244 1731.35 -3.80281C1725.41 54.2143 1711.93 111.059 1691.47 165.267L1691.13 165.423C1637.31 189.688 1588.26 220.167 1544.42 255.632C1564.64 201.683 1577.97 145.143 1583.85 87.448ZM1582.84 88.2697C1537.01 125.786 1496.97 168.785 1463.26 215.836C1457.42 272.776 1444.33 328.586 1424.51 381.888C1458.07 335.764 1497.74 293.605 1543.01 256.775C1563.41 202.743 1576.87 146.091 1582.84 88.2697ZM1462.18 217.345C1428.13 265.151 1400.59 317.108 1380.14 371.722C1374.79 422.116 1363.75 471.609 1347.4 519.243C1367.14 471.837 1392.29 426.648 1422.48 384.693C1442.74 331.022 1456.15 274.765 1462.18 217.345ZM1378.83 375.236C1360.15 425.978 1347.56 478.976 1341.52 533.041C1360.21 482.299 1372.79 429.301 1378.83 375.236ZM2244.14 1387.74C2264.51 1333.55 2277.92 1276.74 2283.8 1218.77L2283.83 1218.76C2337.6 1194.51 2386.63 1164.06 2430.44 1128.63C2424.3 1186.66 2410.62 1243.49 2389.96 1297.67C2346.38 1333.04 2297.62 1363.47 2244.14 1387.74ZM2391.38 1296.51C2411.86 1242.43 2425.4 1185.71 2431.44 1127.81C2477.12 1090.73 2517.11 1048.22 2550.88 1001.7C2544.67 1059.58 2530.95 1116.27 2510.28 1170.31C2476.68 1216.84 2436.87 1259.38 2391.38 1296.51ZM2512.36 1167.41C2532.56 1113.78 2545.94 1057.57 2551.96 1000.2C2585.54 953.669 2612.91 903.142 2633.56 850.012C2620.99 964.278 2579.18 1073.82 2512.36 1167.41ZM1135.71 821.477C1092.13 856.901 1043.35 887.382 989.848 911.699C1010.46 857.893 1037.98 806.722 1071.84 759.63C1124.04 736.033 1171.76 706.586 1214.57 672.413C1182.05 718.725 1155.59 768.859 1135.71 821.477ZM1256.21 693.678C1222.59 740.376 1182.72 783.059 1137.13 820.32C1157.3 767.328 1184.15 716.876 1217.16 670.337C1255.61 639.331 1290.06 604.496 1320.19 566.657C1294.39 606.698 1272.96 649.305 1256.21 693.678ZM1337.29 544.237C1317.18 595.975 1290.69 645.244 1258.3 690.753C1276.14 644.232 1299.14 599.683 1326.94 558.038C1330.45 553.479 1333.9 548.878 1337.29 544.237ZM437.167 -310.771C457.661 -364.477 485.012 -415.571 518.68 -462.625C464.821 -438.225 415.746 -407.584 371.924 -371.944C338.203 -325.055 310.779 -274.124 290.19 -220.572C333.932 -255.908 382.864 -286.284 436.524 -310.481C436.738 -310.577 436.953 -310.674 437.167 -310.771ZM288.766 -219.419C243.611 -182.736 204.019 -140.755 170.503 -94.8275C211.516 -200.392 279.131 -295.67 369.208 -369.723C336.034 -323.099 309.046 -272.538 288.766 -219.419ZM1543.78 257.331C1587.73 221.602 1636.97 190.901 1691.01 166.48C1670.66 220.09 1643.47 271.106 1609.98 318.109C1609.4 318.367 1608.83 318.627 1608.25 318.887C1555.81 342.533 1507.89 372.08 1464.91 406.391C1497.43 360.08 1523.89 309.948 1543.78 257.331ZM1542.36 258.488C1496.78 295.749 1456.91 338.433 1423.3 385.131C1406.54 429.493 1385.12 472.089 1359.32 512.12C1389.45 474.293 1423.89 439.467 1462.32 408.467C1495.34 361.93 1522.19 311.479 1542.36 258.488ZM1421.2 388.057C1388.82 433.55 1362.34 482.799 1342.24 534.518C1345.63 529.884 1349.07 525.29 1352.58 520.737C1380.37 479.103 1403.36 434.566 1421.2 388.057ZM2163.14 1540.35C2196.43 1493.39 2223.46 1442.46 2243.69 1388.95C2297.06 1364.81 2345.75 1334.55 2389.3 1299.38C2368.71 1352.93 2341.28 1403.86 2307.55 1450.75C2264.37 1485.87 2216.08 1516.13 2163.14 1540.35ZM2310.27 1448.53C2343.45 1401.91 2370.44 1351.35 2390.73 1298.23C2435.88 1261.54 2475.48 1219.56 2509 1173.64C2467.98 1279.2 2400.36 1374.48 2310.27 1448.53ZM1216.48 669.703C1173.49 704.359 1125.49 734.222 1072.92 758.134C1106.66 711.485 1146.65 668.867 1192.36 631.688C1234.95 612.438 1274.55 589.293 1310.95 562.865C1275.43 595.274 1243.84 631.147 1216.48 669.703ZM1326.19 557.505C1295.19 597.76 1259.39 634.759 1219.15 667.54C1247.82 627.565 1281.05 590.517 1318.53 557.276C1324.15 553.073 1329.69 548.791 1335.15 544.433C1332.11 548.757 1329.12 553.115 1326.19 557.505ZM1344.4 534.305C1347.42 529.994 1350.4 525.65 1353.32 521.275C1384.31 481.031 1420.1 444.041 1460.33 411.266C1431.67 451.225 1398.44 488.258 1360.98 521.488C1355.37 525.682 1349.85 529.955 1344.4 534.305ZM1342.23 537.375L1342.48 537.015C1344.83 535.123 1347.19 533.246 1349.57 531.383C1347.06 533.507 1344.54 535.615 1341.99 537.706L1342.23 537.375ZM519.748 -464.113L519.395 -463.954C466.111 -439.927 417.489 -409.806 373.98 -374.786C439.663 -465.116 528.837 -540.229 637.614 -589.848C592.535 -552.789 553.074 -510.422 519.748 -464.113ZM1608.63 319.723L1608.92 319.588C1575.9 365.68 1536.79 407.883 1492.13 444.852C1490.65 445.505 1489.18 446.163 1487.7 446.828C1444.9 466.127 1405.11 489.357 1368.56 515.9C1404.07 483.502 1435.64 447.643 1463 409.102C1506.55 373.988 1555.25 343.794 1608.63 319.723ZM2046.95 1666.28C2090.95 1629.47 2129.49 1587.55 2162.08 1541.84C2214.58 1517.97 2262.53 1488.17 2305.5 1453.59C2240.84 1542.5 2153.42 1616.66 2046.95 1666.28ZM1317.95 556.566C1280.46 584.601 1239.46 609.106 1195.2 629.386C1236.49 596.178 1282.38 567.386 1332.49 544.033C1327.58 548.147 1322.73 552.326 1317.95 556.566ZM1336.47 542.194C1334.31 543.935 1332.13 545.665 1329.94 547.382C1331.86 545.758 1333.78 544.143 1335.72 542.538L1336.47 542.194Z" fill="#171717"/>
</svg>
