<svg width="33" height="32" viewBox="0 0 33 32" fill="none" xmlns="http://www.w3.org/2000/svg">
<path d="M33 16C33 12.8355 32.0323 9.74207 30.2192 7.11088C28.4062 4.4797 25.8293 2.42894 22.8143 1.21793C19.7993 0.00693226 16.4817 -0.309921 13.281 0.307443C10.0803 0.924806 7.14031 2.44866 4.83274 4.6863C2.52518 6.92394 0.953706 9.77486 0.31705 12.8786C-0.319606 15.9823 0.00714886 19.1993 1.25599 22.1229C2.50484 25.0466 4.61969 27.5454 7.3331 29.3035C10.0465 31.0616 13.2366 32 16.5 32C20.8748 31.9958 25.0691 30.3088 28.1625 27.3091C31.256 24.3094 32.9957 20.2422 33 16ZM17.4706 30.0863V19.451H21.6765C21.9339 19.451 22.1808 19.3518 22.3628 19.1753C22.5448 18.9988 22.6471 18.7594 22.6471 18.5098C22.6471 18.2602 22.5448 18.0208 22.3628 17.8443C22.1808 17.6678 21.9339 17.5686 21.6765 17.5686H17.4706V13.4902C17.4748 12.7426 17.783 12.0268 18.3281 11.4982C18.8733 10.9696 19.6114 10.6708 20.3824 10.6667H22.9706C23.228 10.6667 23.4749 10.5675 23.6569 10.391C23.8389 10.2145 23.9412 9.97511 23.9412 9.7255C23.9412 9.47588 23.8389 9.23649 23.6569 9.05998C23.4749 8.88348 23.228 8.78432 22.9706 8.78432H20.3824C19.0966 8.78845 17.8647 9.28558 16.9555 10.1672C16.0463 11.0488 15.5337 12.2434 15.5294 13.4902V17.5686H11.3235C11.0661 17.5686 10.8192 17.6678 10.6372 17.8443C10.4552 18.0208 10.3529 18.2602 10.3529 18.5098C10.3529 18.7594 10.4552 18.9988 10.6372 19.1753C10.8192 19.3518 11.0661 19.451 11.3235 19.451H15.5294V30.0863C11.7607 29.8421 8.23728 28.1871 5.70335 25.4709C3.16942 22.7547 1.82331 19.1899 1.94928 15.5292C2.07526 11.8685 3.66346 8.39862 6.37849 5.85225C9.09352 3.30588 12.7228 1.88239 16.5 1.88239C20.2772 1.88239 23.9065 3.30588 26.6215 5.85225C29.3365 8.39862 30.9247 11.8685 31.0507 15.5292C31.1767 19.1899 29.8306 22.7547 27.2967 25.4709C24.7627 28.1871 21.2394 29.8421 17.4706 30.0863Z" fill="white"/>
</svg>
