<svg width="62" height="62" viewBox="0 0 62 62" fill="none" xmlns="http://www.w3.org/2000/svg">
<g filter="url(#filter0_d_1_66)">
<path d="M54.7479 7.08541C52.779 5.11646 50.4098 4.13333 47.6377 4.13333H14.0957C11.3235 4.13333 8.95436 5.11646 6.98541 7.08541C5.01646 9.05437 4.03333 11.4236 4.03333 14.1957V47.7377C4.03333 50.5098 5.01646 52.879 6.98541 54.8479C8.95436 56.8169 11.3235 57.8 14.0957 57.8H21.9231C22.4335 57.8 22.8176 57.7812 23.0755 57.7463C23.3755 57.6861 23.6463 57.5261 23.8437 57.2923C24.0989 57.0237 24.2278 56.6342 24.2278 56.1238L24.209 53.7466C24.1983 52.2316 24.1929 51.0336 24.1929 50.1471L23.3871 50.2868C22.8767 50.3808 22.232 50.4211 21.4503 50.4104C20.6356 50.3954 19.8235 50.3136 19.0221 50.1659C18.169 50.0084 17.3659 49.6493 16.6797 49.1184C15.9612 48.5748 15.4252 47.8252 15.1433 46.9694L14.7941 46.1636C14.4997 45.5279 14.13 44.93 13.6927 44.3827C13.1931 43.7299 12.6854 43.2894 12.1724 43.0557L11.9306 42.8811C11.762 42.7604 11.6087 42.6197 11.474 42.4621C11.3453 42.3158 11.2393 42.151 11.1597 41.9732C11.0899 41.8093 11.1489 41.675 11.3343 41.5703C11.5223 41.4628 11.8581 41.4118 12.3497 41.4118L13.0481 41.5192C13.5128 41.6105 14.0903 41.8899 14.7753 42.3546C15.4684 42.8272 16.0475 43.4485 16.4702 44.1731C17.0074 45.1267 17.6521 45.8547 18.4096 46.357C19.1671 46.8566 19.93 47.1091 20.6982 47.1091C21.4665 47.1091 22.1299 47.05 22.6914 46.9345C23.2343 46.8223 23.7618 46.6455 24.2628 46.408C24.4723 44.8501 25.0417 43.6467 25.9738 42.8086C24.7661 42.6902 23.5691 42.48 22.3932 42.18C21.2456 41.8648 20.142 41.4073 19.108 40.8181C18.0262 40.2291 17.0706 39.4333 16.2956 38.4758C15.5516 37.5437 14.9391 36.3215 14.461 34.8092C13.9855 33.2942 13.7465 31.5455 13.7465 29.5658C13.7465 26.7481 14.6651 24.3493 16.5051 22.3669C15.6456 20.2503 15.7262 17.873 16.7496 15.2433C17.4265 15.0311 18.4284 15.1895 19.7554 15.7133C21.0823 16.2371 22.0547 16.6857 22.6725 17.0564C23.2904 17.4325 23.7846 17.7468 24.158 18.0019C26.3418 17.3942 28.5986 17.0887 30.8653 17.094C33.1727 17.094 35.4076 17.3976 37.5753 18.0019L38.9023 17.1639C39.923 16.551 40.9996 16.0366 42.1176 15.6274C43.3532 15.16 44.2934 15.0337 44.9488 15.2433C45.9964 17.8757 46.0877 20.2503 45.2255 22.3696C47.0655 24.3493 47.9869 26.7481 47.9869 29.5685C47.9869 31.5482 47.7478 33.3023 47.2697 34.8253C46.7942 36.3511 46.1764 37.5733 45.4189 38.4946C44.6303 39.4398 43.6707 40.2281 42.5904 40.8181C41.4622 41.4467 40.3662 41.9007 39.3052 42.18C38.1294 42.481 36.9324 42.692 35.7246 42.8113C36.9333 43.8589 37.5404 45.5108 37.5404 47.7699V56.1238C37.5404 56.5187 37.5968 56.8384 37.715 57.0828C37.7693 57.2006 37.8468 57.3062 37.9428 57.3934C38.0388 57.4806 38.1513 57.5476 38.2737 57.5905C38.5316 57.6818 38.7572 57.7409 38.956 57.7624C39.1548 57.7893 39.4395 57.7973 39.8102 57.7973H47.6377C50.4098 57.7973 52.779 56.8142 54.7479 54.8452C56.7142 52.879 57.7 50.5071 57.7 47.735V14.1957C57.7 11.4236 56.7142 9.05437 54.7452 7.08541H54.7479Z" fill="#09080D"/>
</g>
<defs>
<filter id="filter0_d_1_66" x="0.0333252" y="0.133331" width="61.6667" height="61.6667" filterUnits="userSpaceOnUse" color-interpolation-filters="sRGB">
<feFlood flood-opacity="0" result="BackgroundImageFix"/>
<feColorMatrix in="SourceAlpha" type="matrix" values="0 0 0 0 0 0 0 0 0 0 0 0 0 0 0 0 0 0 127 0" result="hardAlpha"/>
<feOffset/>
<feGaussianBlur stdDeviation="2"/>
<feComposite in2="hardAlpha" operator="out"/>
<feColorMatrix type="matrix" values="0 0 0 0 1 0 0 0 0 1 0 0 0 0 1 0 0 0 0.25 0"/>
<feBlend mode="normal" in2="BackgroundImageFix" result="effect1_dropShadow_1_66"/>
<feBlend mode="normal" in="SourceGraphic" in2="effect1_dropShadow_1_66" result="shape"/>
</filter>
</defs>
</svg>
