<svg width="63" height="62" viewBox="0 0 63 62" fill="none" xmlns="http://www.w3.org/2000/svg">
<g filter="url(#filter0_d_1_62)">
<path d="M52.5037 4.13333C54.0852 4.13333 55.6019 4.76157 56.7201 5.87984C57.8384 6.99812 58.4667 8.51482 58.4667 10.0963V51.837C58.4667 53.4185 57.8384 54.9352 56.7201 56.0535C55.6019 57.1718 54.0852 57.8 52.5037 57.8H10.763C9.18147 57.8 7.66477 57.1718 6.5465 56.0535C5.42823 54.9352 4.79999 53.4185 4.79999 51.837V10.0963C4.79999 8.51482 5.42823 6.99812 6.5465 5.87984C7.66477 4.76157 9.18147 4.13333 10.763 4.13333H52.5037ZM51.013 50.3463V34.5444C51.013 31.9666 49.9889 29.4944 48.1661 27.6716C46.3434 25.8488 43.8711 24.8248 41.2933 24.8248C38.7591 24.8248 35.8074 26.3752 34.3763 28.7007V25.3913H26.058V50.3463H34.3763V35.6476C34.3763 33.3519 36.2248 31.4735 38.5205 31.4735C39.6276 31.4735 40.6893 31.9133 41.4721 32.6961C42.2549 33.4789 42.6946 34.5406 42.6946 35.6476V50.3463H51.013ZM16.3681 20.7104C17.6966 20.7104 18.9706 20.1826 19.91 19.2433C20.8493 18.304 21.377 17.0299 21.377 15.7015C21.377 12.9287 19.1409 10.6628 16.3681 10.6628C15.0318 10.6628 13.7502 11.1936 12.8052 12.1386C11.8603 13.0835 11.3294 14.3651 11.3294 15.7015C11.3294 18.4743 13.5954 20.7104 16.3681 20.7104ZM20.5124 50.3463V25.3913H12.2537V50.3463H20.5124Z" fill="#09080D"/>
</g>
<defs>
<filter id="filter0_d_1_62" x="0.799988" y="0.133331" width="61.6667" height="61.6667" filterUnits="userSpaceOnUse" color-interpolation-filters="sRGB">
<feFlood flood-opacity="0" result="BackgroundImageFix"/>
<feColorMatrix in="SourceAlpha" type="matrix" values="0 0 0 0 0 0 0 0 0 0 0 0 0 0 0 0 0 0 127 0" result="hardAlpha"/>
<feOffset/>
<feGaussianBlur stdDeviation="2"/>
<feComposite in2="hardAlpha" operator="out"/>
<feColorMatrix type="matrix" values="0 0 0 0 1 0 0 0 0 1 0 0 0 0 1 0 0 0 0.25 0"/>
<feBlend mode="normal" in2="BackgroundImageFix" result="effect1_dropShadow_1_62"/>
<feBlend mode="normal" in="SourceGraphic" in2="effect1_dropShadow_1_62" result="shape"/>
</filter>
</defs>
</svg>
