<svg width="63" height="62" viewBox="0 0 63 62" fill="none" xmlns="http://www.w3.org/2000/svg">
<g filter="url(#filter0_d_1_68)">
<path d="M56.32 4.13333H6.94665C5.75928 4.13333 4.79999 5.09262 4.79999 6.28V55.6533C4.79999 56.8407 5.75928 57.8 6.94665 57.8H56.32C57.5074 57.8 58.4667 56.8407 58.4667 55.6533V6.28C58.4667 5.09262 57.5074 4.13333 56.32 4.13333ZM46.0764 23.5674C46.0965 23.8827 46.0965 24.2114 46.0965 24.5334C46.0965 34.3812 38.5966 45.725 24.8914 45.725C20.6652 45.725 16.7475 44.4974 13.447 42.3843C14.0508 42.4513 14.6277 42.4782 15.2449 42.4782C18.7332 42.4782 21.9398 41.2975 24.4957 39.2984C21.222 39.2313 18.4716 37.0847 17.5324 34.133C18.6795 34.3007 19.7126 34.3007 20.8933 33.9988C19.2077 33.6564 17.6926 32.7409 16.6054 31.408C15.5183 30.075 14.9261 28.4068 14.9296 26.6868V26.5928C15.9157 27.1496 17.0762 27.4917 18.2904 27.5387C17.2697 26.8584 16.4326 25.9368 15.8534 24.8556C15.2741 23.7743 14.9706 22.5668 14.9698 21.3402C14.9698 19.9516 15.3321 18.6837 15.9828 17.5835C17.8538 19.8868 20.1884 21.7705 22.8351 23.1123C25.4818 24.4541 28.3812 25.224 31.3449 25.3719C30.2917 20.3071 34.0752 16.2083 38.6234 16.2083C40.7701 16.2083 42.7021 17.1072 44.0639 18.5562C45.7477 18.241 47.3577 17.6104 48.7932 16.7651C48.2364 18.4892 47.0692 19.9449 45.5196 20.8639C47.0222 20.7029 48.4712 20.287 49.8129 19.7034C48.7999 21.1926 47.5321 22.5142 46.0764 23.5674Z" fill="#09080D"/>
</g>
<defs>
<filter id="filter0_d_1_68" x="0.799988" y="0.133331" width="61.6667" height="61.6667" filterUnits="userSpaceOnUse" color-interpolation-filters="sRGB">
<feFlood flood-opacity="0" result="BackgroundImageFix"/>
<feColorMatrix in="SourceAlpha" type="matrix" values="0 0 0 0 0 0 0 0 0 0 0 0 0 0 0 0 0 0 127 0" result="hardAlpha"/>
<feOffset/>
<feGaussianBlur stdDeviation="2"/>
<feComposite in2="hardAlpha" operator="out"/>
<feColorMatrix type="matrix" values="0 0 0 0 1 0 0 0 0 1 0 0 0 0 1 0 0 0 0.25 0"/>
<feBlend mode="normal" in2="BackgroundImageFix" result="effect1_dropShadow_1_68"/>
<feBlend mode="normal" in="SourceGraphic" in2="effect1_dropShadow_1_68" result="shape"/>
</filter>
</defs>
</svg>
